<svg class="animated" id="freepik_stories-robot-face" xmlns="http://www.w3.org/2000/svg" viewBox="0 0 500 500" version="1.1" xmlns:xlink="http://www.w3.org/1999/xlink" xmlns:svgjs="http://svgjs.com/svgjs"><style>svg#freepik_stories-robot-face:not(.animated) .animable {opacity: 0;}svg#freepik_stories-robot-face.animated #freepik--background-complete--inject-185 {animation: 6s Infinite  linear floating;animation-delay: 0s;}svg#freepik_stories-robot-face.animated #freepik--robot-face--inject-185 {animation: 3s Infinite  linear floating;animation-delay: 0s;}svg#freepik_stories-robot-face.animated #freepik--Texts--inject-185 {animation: 6s Infinite  linear shake;animation-delay: 0s;}            @keyframes floating {                0% {                    opacity: 1;                    transform: translateY(0px);                }                50% {                    transform: translateY(-10px);                }                100% {                    opacity: 1;                    transform: translateY(0px);                }            }                    @keyframes shake {                10%, 90% {                    transform: translate3d(-1px, 0, 0);                  }                  20%, 80% {                    transform: translate3d(2px, 0, 0);                  }                  30%, 50%, 70% {                    transform: translate3d(-4px, 0, 0);                  }                  40%, 60% {                    transform: translate3d(4px, 0, 0);                  }            }        </style><g id="freepik--background-complete--inject-185" class="animable" style="transform-origin: 252.68px 233.05px;"><rect x="354.47" y="262.3" width="28.58" height="3.28" style="fill: rgb(224, 224, 224); transform-origin: 368.76px 263.94px;" id="elhyo8v3oj6q" class="animable"></rect><rect x="354.47" y="272.78" width="28.58" height="3.28" style="fill: rgb(224, 224, 224); transform-origin: 368.76px 274.42px;" id="eldsyzoq3jz" class="animable"></rect><rect x="354.47" y="267.44" width="1.71" height="3.28" style="fill: rgb(224, 224, 224); transform-origin: 355.325px 269.08px;" id="el62neulr21ex" class="animable"></rect><rect x="385.32" y="273.36" width="1.71" height="3.28" style="fill: rgb(224, 224, 224); transform-origin: 386.175px 275px;" id="elu0c52y4w93k" class="animable"></rect><rect x="384.64" y="262.3" width="5.58" height="3.28" style="fill: rgb(224, 224, 224); transform-origin: 387.43px 263.94px;" id="el5zx9zlxowr8" class="animable"></rect><rect x="369.32" y="267.41" width="5.58" height="3.28" style="fill: rgb(224, 224, 224); transform-origin: 372.11px 269.05px;" id="ele3lh38b60zr" class="animable"></rect><rect x="376.42" y="267.33" width="8.94" height="3.28" style="fill: rgb(224, 224, 224); transform-origin: 380.89px 268.97px;" id="elr4h2g8c6vy" class="animable"></rect><rect x="331.52" y="249.83" width="1.71" height="3.28" style="fill: rgb(224, 224, 224); transform-origin: 332.375px 251.47px;" id="el528l378rztn" class="animable"></rect><rect x="362.37" y="255.75" width="1.71" height="3.28" style="fill: rgb(224, 224, 224); transform-origin: 363.225px 257.39px;" id="eltuwq2gexj7" class="animable"></rect><rect x="361.69" y="244.69" width="5.58" height="3.28" style="fill: rgb(224, 224, 224); transform-origin: 364.48px 246.33px;" id="elry16l2c89d" class="animable"></rect><rect x="346.37" y="249.79" width="5.58" height="3.28" style="fill: rgb(224, 224, 224); transform-origin: 349.16px 251.43px;" id="elomytuqmz9a" class="animable"></rect><rect x="353.47" y="249.71" width="8.94" height="3.28" style="fill: rgb(224, 224, 224); transform-origin: 357.94px 251.35px;" id="el66hv2wxv8rf" class="animable"></rect><rect x="106.67" y="159.87" width="30.62" height="3.52" style="fill: rgb(224, 224, 224); transform-origin: 121.98px 161.63px;" id="eliuht6dm7ml" class="animable"></rect><rect x="106.67" y="171.1" width="30.62" height="3.52" style="fill: rgb(224, 224, 224); transform-origin: 121.98px 172.86px;" id="elclpddtsmc4l" class="animable"></rect><rect x="106.67" y="165.39" width="1.83" height="3.52" style="fill: rgb(224, 224, 224); transform-origin: 107.585px 167.15px;" id="ele32i57ep43i" class="animable"></rect><rect x="139.74" y="171.73" width="1.83" height="3.52" style="fill: rgb(224, 224, 224); transform-origin: 140.655px 173.49px;" id="eltkl8bttxdw" class="animable"></rect><rect x="139" y="159.87" width="5.98" height="3.52" style="fill: rgb(224, 224, 224); transform-origin: 141.99px 161.63px;" id="elolltc1ll5zp" class="animable"></rect><rect x="122.58" y="165.35" width="5.98" height="3.52" style="fill: rgb(224, 224, 224); transform-origin: 125.57px 167.11px;" id="eli7ikdu0mo3s" class="animable"></rect><rect x="130.2" y="165.26" width="9.58" height="3.52" style="fill: rgb(224, 224, 224); transform-origin: 134.99px 167.02px;" id="elgh4ro3lgebq" class="animable"></rect><rect x="82.08" y="146.52" width="1.83" height="3.52" style="fill: rgb(224, 224, 224); transform-origin: 82.995px 148.28px;" id="elhvy8e1rf5yd" class="animable"></rect><rect x="115.14" y="152.85" width="1.83" height="3.52" style="fill: rgb(224, 224, 224); transform-origin: 116.055px 154.61px;" id="elyiu4w17dd7c" class="animable"></rect><rect x="114.41" y="141" width="5.98" height="3.52" style="fill: rgb(224, 224, 224); transform-origin: 117.4px 142.76px;" id="el3o9tgjothwd" class="animable"></rect><rect x="97.99" y="146.47" width="5.98" height="3.52" style="fill: rgb(224, 224, 224); transform-origin: 100.98px 148.23px;" id="eleyrifiltk0f" class="animable"></rect><rect x="105.6" y="146.39" width="9.58" height="3.52" style="fill: rgb(224, 224, 224); transform-origin: 110.39px 148.15px;" id="el3blarhf86ij" class="animable"></rect><rect x="102.96" y="297.06" width="32.24" height="3.7" style="fill: rgb(224, 224, 224); transform-origin: 119.08px 298.91px;" id="el76a6xqft13p" class="animable"></rect><rect x="102.96" y="308.88" width="32.24" height="3.7" style="fill: rgb(224, 224, 224); transform-origin: 119.08px 310.73px;" id="elowco51ekuj" class="animable"></rect><rect x="102.96" y="302.87" width="1.93" height="3.7" style="fill: rgb(224, 224, 224); transform-origin: 103.925px 304.72px;" id="elocn9ge8w1eg" class="animable"></rect><rect x="137.77" y="309.54" width="1.93" height="3.7" style="fill: rgb(224, 224, 224); transform-origin: 138.735px 311.39px;" id="elx3x9gn6v2x" class="animable"></rect><rect x="136.99" y="297.06" width="6.3" height="3.7" style="fill: rgb(224, 224, 224); transform-origin: 140.14px 298.91px;" id="el4ghyvjtcu4i" class="animable"></rect><rect x="119.71" y="302.82" width="6.3" height="3.7" style="fill: rgb(224, 224, 224); transform-origin: 122.86px 304.67px;" id="elm1piguax33h" class="animable"></rect><rect x="127.72" y="302.73" width="10.08" height="3.7" style="fill: rgb(224, 224, 224); transform-origin: 132.76px 304.58px;" id="el7f04twbb8zs" class="animable"></rect><rect x="77.07" y="283" width="1.93" height="3.7" style="fill: rgb(224, 224, 224); transform-origin: 78.035px 284.85px;" id="els6oj2aice6" class="animable"></rect><rect x="111.88" y="289.67" width="1.93" height="3.7" style="fill: rgb(224, 224, 224); transform-origin: 112.845px 291.52px;" id="elk6s58x3fdz" class="animable"></rect><rect x="111.11" y="277.19" width="6.3" height="3.7" style="fill: rgb(224, 224, 224); transform-origin: 114.26px 279.04px;" id="elen3hicuyb3h" class="animable"></rect><rect x="93.82" y="282.95" width="6.3" height="3.7" style="fill: rgb(224, 224, 224); transform-origin: 96.97px 284.8px;" id="ellv1m55uosh" class="animable"></rect><rect x="101.83" y="282.86" width="10.08" height="3.7" style="fill: rgb(224, 224, 224); transform-origin: 106.87px 284.71px;" id="elowkhzqtdqp" class="animable"></rect><path d="M476.47,113.69c0,.13-16.64.25-37.17.25s-37.19-.12-37.19-.25,16.65-.26,37.19-.26S476.47,113.55,476.47,113.69Z" style="fill: rgb(224, 224, 224); transform-origin: 439.29px 113.685px;" id="ele857a0epamf" class="animable"></path><path d="M332.1,437.41s-.16-.12-.45-.37-.75-.63-1.31-1.12l-5-4.32-18.33-16-60.37-52.88-51.4-45.18-.07-.06v-.09c0-13.74.07-25,.09-32.86,0-3.9,0-7,.05-9l0-2.37c0-.54,0-.81,0-.81s0,.27,0,.81,0,1.34,0,2.37c0,2.09,0,5.14.06,9,0,7.85.05,19.12.08,32.86l-.07-.15L247,362.35l60.27,53,18.23,16.11,4.94,4.4,1.28,1.15C332,437.26,332.1,437.41,332.1,437.41Z" style="fill: rgb(224, 224, 224); transform-origin: 263.635px 354.88px;" id="eljvj86phzn5b" class="animable"></path><path d="M252.33,220.66a1.92,1.92,0,1,1-1.92-1.93A1.92,1.92,0,0,1,252.33,220.66Z" style="fill: rgb(224, 224, 224); transform-origin: 250.41px 220.65px;" id="elj4d0onln4vh" class="animable"></path><path d="M252.33,252.8a1.92,1.92,0,1,1-1.92-1.93A1.92,1.92,0,0,1,252.33,252.8Z" style="fill: rgb(224, 224, 224); transform-origin: 250.41px 252.79px;" id="elt2q6zggv0dl" class="animable"></path><path d="M87.16,268.8l.88,0,2.58,0,10,0,37.26-.07,127.55-.09-.24.24c0-17.82,0-36.78,0-56.28,0-66.88.06-127.21.08-169.58l.17.17L217.77,43,204.9,43l-3.33,0-1.14,0,1.14,0,3.33,0,12.87,0,47.64-.08h.18v.18c0,42.37,0,102.7.07,169.58v56.53h-.25L137.86,269l-37.26-.07-10,0-2.58,0Z" style="fill: rgb(224, 224, 224); transform-origin: 176.41px 156.065px;" id="elmlp86wr2lg" class="animable"></path><path d="M131.08,459.32s0-.38,0-1.12,0-1.84,0-3.26c0-2.88,0-7.11,0-12.55,0-10.9,0-26.64-.09-46.07l.06.14L87,352.58l-.07-.07v-.1c0-20.22,0-42.36,0-65.47,0-48.53,0-92.82.07-126l.1.17L44.49,140.7l-11.6-5.59-3-1.47-1-.52s.36.15,1,.47l3,1.42,11.65,5.5L87.24,160.8l.11,0V161c0,33.15,0,77.44.06,126,0,23.11,0,45.25,0,65.47l-.07-.17,43.88,43.95,0,.06v.07c0,19.43-.06,35.17-.08,46.07,0,5.44,0,9.67-.05,12.55,0,1.42,0,2.52,0,3.26S131.08,459.32,131.08,459.32Z" style="fill: rgb(224, 224, 224); transform-origin: 80.055px 296.22px;" id="elajes0unv3wi" class="animable"></path><path d="M120.28,413.34a1.93,1.93,0,1,1-1.92-1.93A1.92,1.92,0,0,1,120.28,413.34Z" style="fill: rgb(224, 224, 224); transform-origin: 118.35px 413.34px;" id="elfxrp7sb7npo" class="animable"></path><path d="M120.28,445.48a1.93,1.93,0,1,1-1.92-1.92A1.92,1.92,0,0,1,120.28,445.48Z" style="fill: rgb(224, 224, 224); transform-origin: 118.35px 445.49px;" id="el61090oh8gig" class="animable"></path><path d="M73.55,301.65a1.92,1.92,0,1,1-1.92-1.92A1.92,1.92,0,0,1,73.55,301.65Z" style="fill: rgb(224, 224, 224); transform-origin: 71.63px 301.65px;" id="elmowyi5x4k0j" class="animable"></path><path d="M73.55,333.8a1.92,1.92,0,1,1-1.92-1.93A1.92,1.92,0,0,1,73.55,333.8Z" style="fill: rgb(224, 224, 224); transform-origin: 71.63px 333.79px;" id="elklx5pfu781p" class="animable"></path><path d="M73.55,236.73a1.92,1.92,0,1,1-1.92-1.93A1.92,1.92,0,0,1,73.55,236.73Z" style="fill: rgb(224, 224, 224); transform-origin: 71.63px 236.72px;" id="eljhmixik0hzh" class="animable"></path><path d="M73.55,268.87A1.92,1.92,0,1,1,71.63,267,1.92,1.92,0,0,1,73.55,268.87Z" style="fill: rgb(224, 224, 224); transform-origin: 71.6306px 268.92px;" id="el5u7ib1cu61l" class="animable"></path><path d="M73.55,171.8a1.92,1.92,0,1,1-1.92-1.92A1.92,1.92,0,0,1,73.55,171.8Z" style="fill: rgb(224, 224, 224); transform-origin: 71.63px 171.8px;" id="elfjq2xbqchu" class="animable"></path><path d="M73.55,203.94A1.92,1.92,0,1,1,71.63,202,1.92,1.92,0,0,1,73.55,203.94Z" style="fill: rgb(224, 224, 224); transform-origin: 71.6301px 203.92px;" id="el55lckbm87m7" class="animable"></path><path d="M358.2,6.78s0,.38,0,1.11,0,1.84,0,3.27c0,2.88,0,7.1.05,12.54,0,10.9.05,26.64.08,46.07l-.05-.13,43.95,43.88.07.07v.1c0,20.21,0,42.36,0,65.47,0,48.53,0,92.81-.06,126l-.11-.17,42.6,20.43,11.6,5.6,3,1.47,1,.51-1-.46-3-1.42-11.64-5.51L402,305.3l-.1-.05v-.12c0-33.16,0-77.44-.07-126,0-23.11,0-45.26,0-65.47l.07.16L358.07,69.9l-.06-.05v-.08c0-19.43.07-35.17.09-46.07,0-5.44,0-9.66,0-12.54q0-2.14,0-3.27C358.18,7.16,358.2,6.78,358.2,6.78Z" style="fill: rgb(224, 224, 224); transform-origin: 409.17px 169.89px;" id="ela69xlipw455" class="animable"></path><path d="M369,52.76a1.92,1.92,0,1,1,1.92,1.92A1.92,1.92,0,0,1,369,52.76Z" style="fill: rgb(224, 224, 224); transform-origin: 370.92px 52.76px;" id="elkpz3eufek6q" class="animable"></path><path d="M369,20.62a1.92,1.92,0,1,1,1.92,1.92A1.92,1.92,0,0,1,369,20.62Z" style="fill: rgb(224, 224, 224); transform-origin: 370.92px 20.62px;" id="elp1dkg7jztia" class="animable"></path><path d="M276.78,91a1.93,1.93,0,1,1,1.92,1.92A1.92,1.92,0,0,1,276.78,91Z" style="fill: rgb(224, 224, 224); transform-origin: 278.71px 90.99px;" id="elia1jt099n0r" class="animable"></path><path d="M276.78,58.82a1.93,1.93,0,1,1,1.92,1.92A1.92,1.92,0,0,1,276.78,58.82Z" style="fill: rgb(224, 224, 224); transform-origin: 278.71px 58.81px;" id="eli39gpjlc0qi" class="animable"></path><path d="M276.78,148.37a1.93,1.93,0,1,1,1.92,1.92A1.92,1.92,0,0,1,276.78,148.37Z" style="fill: rgb(224, 224, 224); transform-origin: 278.71px 148.36px;" id="elaamj7lhqu1u" class="animable"></path><path d="M276.78,116.23a1.93,1.93,0,1,1,1.92,1.92A1.92,1.92,0,0,1,276.78,116.23Z" style="fill: rgb(224, 224, 224); transform-origin: 278.71px 116.22px;" id="el6p9kg0l2x2y" class="animable"></path><circle cx="417.65" cy="164.44" r="1.92" style="fill: rgb(224, 224, 224); transform-origin: 417.65px 164.44px;" id="elwpg9mj1b6q9" class="animable"></circle><path d="M415.72,132.3a1.93,1.93,0,1,1,1.93,1.92A1.93,1.93,0,0,1,415.72,132.3Z" style="fill: rgb(224, 224, 224); transform-origin: 417.65px 132.29px;" id="el91mp37hm2d" class="animable"></path><circle cx="417.65" cy="229.37" r="1.92" style="fill: rgb(224, 224, 224); transform-origin: 417.65px 229.37px;" id="el85qn2zbagcd" class="animable"></circle><path d="M415.72,197.23a1.93,1.93,0,1,1,1.93,1.92A1.93,1.93,0,0,1,415.72,197.23Z" style="fill: rgb(224, 224, 224); transform-origin: 417.65px 197.22px;" id="elp58yzgr10kd" class="animable"></path><path d="M415.72,294.29a1.93,1.93,0,1,1,1.93,1.93A1.93,1.93,0,0,1,415.72,294.29Z" style="fill: rgb(224, 224, 224); transform-origin: 417.65px 294.29px;" id="elkoad62fj3sb" class="animable"></path><path d="M415.72,262.15a1.93,1.93,0,1,1,1.93,1.93A1.93,1.93,0,0,1,415.72,262.15Z" style="fill: rgb(224, 224, 224); transform-origin: 417.65px 262.15px;" id="elxjk3hfg6us" class="animable"></path><path d="M187.17,25a1.93,1.93,0,1,1-1.93-1.92A1.93,1.93,0,0,1,187.17,25Z" style="fill: rgb(224, 224, 224); transform-origin: 185.24px 25.01px;" id="ela9ef06dcc1r" class="animable"></path><path d="M187.17,57.19a1.93,1.93,0,1,1-1.93-1.93A1.93,1.93,0,0,1,187.17,57.19Z" style="fill: rgb(224, 224, 224); transform-origin: 185.24px 57.19px;" id="el0pzoipdr7k2m" class="animable"></path><path d="M61.16,86.63a1.92,1.92,0,1,1-1-2.52A1.92,1.92,0,0,1,61.16,86.63Z" style="fill: rgb(224, 224, 224); transform-origin: 59.3962px 85.8715px;" id="el2iykfipdqov" class="animable"></path><path d="M48.39,116.13a1.92,1.92,0,1,1-1-2.53A1.92,1.92,0,0,1,48.39,116.13Z" style="fill: rgb(224, 224, 224); transform-origin: 46.6298px 115.363px;" id="el16s3csxphab" class="animable"></path><path d="M199.26,7.25s0,.38,0,1.11,0,1.82,0,3.22c0,2.85,0,7,.06,12.27,0,10.59.05,25.72.09,43.93V68h-.21l-68.87,0L83.5,68l.21-.13L58.47,121.64,51.2,137l-2,4.08-.51,1a3.24,3.24,0,0,1-.18.35s0-.12.15-.36l.47-1.07L51.06,137c1.67-3.61,4.09-8.85,7.15-15.45L83.29,67.68l.06-.13h.15l46.89,0,68.87,0-.22.21c0-18.21.07-33.34.09-43.93,0-5.28.05-9.42.06-12.27,0-1.4,0-2.48,0-3.22S199.26,7.25,199.26,7.25Z" style="fill: rgb(224, 224, 224); transform-origin: 123.96px 74.84px;" id="elhgnx7s79z6m" class="animable"></path><path d="M197.83,64.66c-.09.1-.37,0-.61-.25s-.35-.52-.25-.61.37,0,.61.25S197.93,64.57,197.83,64.66Z" style="fill: rgb(224, 224, 224); transform-origin: 197.4px 64.2321px;" id="el4fzy5pmvktr" class="animable"></path><path d="M204,306.87A1.92,1.92,0,1,1,206,308.8,1.92,1.92,0,0,1,204,306.87Z" style="fill: rgb(224, 224, 224); transform-origin: 205.92px 306.882px;" id="elaib2tcj4n19" class="animable"></path><path d="M204,280.9a1.92,1.92,0,1,1,1.92,1.92A1.92,1.92,0,0,1,204,280.9Z" style="fill: rgb(224, 224, 224); transform-origin: 205.92px 280.9px;" id="eluoshter8o1j" class="animable"></path><circle cx="432.65" cy="369.83" r="1.92" style="fill: rgb(224, 224, 224); transform-origin: 432.65px 369.83px;" id="elrpom7jmzwd" class="animable"></circle><path d="M430.73,343.86a1.93,1.93,0,1,1,1.92,1.92A1.93,1.93,0,0,1,430.73,343.86Z" style="fill: rgb(224, 224, 224); transform-origin: 432.66px 343.85px;" id="el6rnosqzgabt" class="animable"></path><path d="M351.53,437.33a1.92,1.92,0,1,1-1.13,2.47A1.91,1.91,0,0,1,351.53,437.33Z" style="fill: rgb(224, 224, 224); transform-origin: 352.198px 439.13px;" id="elc912e4bqn5v" class="animable"></path><path d="M375.86,428.24a1.92,1.92,0,1,1-1.12,2.47A1.92,1.92,0,0,1,375.86,428.24Z" style="fill: rgb(224, 224, 224); transform-origin: 376.538px 430.036px;" id="elpt2wfcrwzce" class="animable"></path><path d="M398.52,418.42a1.92,1.92,0,1,1-1.13,2.47A1.92,1.92,0,0,1,398.52,418.42Z" style="fill: rgb(224, 224, 224); transform-origin: 399.189px 420.22px;" id="elac1bckfi67d" class="animable"></path><path d="M422.85,409.33a1.93,1.93,0,1,1-1.13,2.48A1.94,1.94,0,0,1,422.85,409.33Z" style="fill: rgb(224, 224, 224); transform-origin: 423.53px 411.137px;" id="elef157amlmvm" class="animable"></path><path d="M332.24,455.68a1.39,1.39,0,0,1,0-.27c0-.19,0-.46,0-.8,0-.73,0-1.78,0-3.13,0-2.77,0-6.79-.07-11.91v-.09l.08,0,78.39-34.29,32-13.94-.14.21c.13-19.5.25-36.18.34-48,.06-5.89.1-10.57.14-13.8,0-1.59,0-2.82.05-3.67,0-.41,0-.72,0-.95a2,2,0,0,1,0-.32,2,2,0,0,1,0,.32c0,.23,0,.54,0,.95,0,.85,0,2.08,0,3.67v13.8c0,11.83-.1,28.51-.16,48v.16l-.14.06-32,14-78.48,34.07.08-.12c0,5.12-.05,9.14-.06,11.91,0,1.35,0,2.4,0,3.13,0,.34,0,.61,0,.8S332.24,455.68,332.24,455.68Z" style="fill: rgb(224, 224, 224); transform-origin: 387.603px 390.2px;" id="el596y5nmx1j5" class="animable"></path><path d="M359.73,42.94c0,.14-21.32.25-47.61.25s-47.62-.11-47.62-.25,21.32-.26,47.62-.26S359.73,42.8,359.73,42.94Z" style="fill: rgb(224, 224, 224); transform-origin: 312.115px 42.935px;" id="el7uwx8gkpb68" class="animable"></path><path d="M401.11,162.52c0,.14-30.38.25-67.84.25s-67.86-.11-67.86-.25,30.38-.25,67.86-.25S401.11,162.38,401.11,162.52Z" style="fill: rgb(224, 224, 224); transform-origin: 333.26px 162.52px;" id="ellm6ym6b9yde" class="animable"></path><path d="M265.41,202a1.91,1.91,0,0,1-.42,0l-1.22,0-4.73.05-17.37.08-57.31.07h-8.07l.23-.15-20.89,47.49-6.28,14.14-1.72,3.81-.45,1-.17.33a1.7,1.7,0,0,1,.12-.35l.42-1,1.63-3.85,6.14-14.2,20.74-47.55.06-.15h8.24l57.31.07,17.37.08,4.73.05,1.22,0A2.24,2.24,0,0,1,265.41,202Z" style="fill: rgb(224, 224, 224); transform-origin: 206.21px 235.27px;" id="elghdqc0poo56" class="animable"></path></g><g id="freepik--Floor--inject-185" class="animable" style="transform-origin: 250px 480.06px;"><path d="M477.28,480.06c0,.15-101.77.26-227.27.26s-227.29-.11-227.29-.26,101.75-.26,227.29-.26S477.28,479.92,477.28,480.06Z" style="fill: rgb(38, 50, 56); transform-origin: 250px 480.06px;" id="el3qf49zwt86u" class="animable"></path></g><g id="freepik--robot-face--inject-185" class="animable" style="transform-origin: 254.17px 275.338px;"><path d="M196.37,124.42a13.25,13.25,0,0,0-11.38-6.6,16.24,16.24,0,0,0-12.26,5.89c-6.1,7.24-6.73,18-2.88,26.47a19.32,19.32,0,0,0,9.49,9.72,2.58,2.58,0,0,0,3.42-.9,2.52,2.52,0,0,0-.9-3.42c-6-2.64-9.12-9-9.41-15.3-.32-7.1,2.91-15.61,10.58-17.28a8.34,8.34,0,0,1,9,3.94c1.55,2.83,5.87.31,4.32-2.52Z" style="fill: rgb(38, 50, 56); transform-origin: 182.061px 139.017px;" id="elvula45t0ds" class="animable"></path><path d="M175.43,150.24a10.3,10.3,0,0,0-2.13,1c-1.05.74-1.41,1.78-1.56,1.74s-.06-.31.12-.75a3.5,3.5,0,0,1,2.83-2.07C175.15,150.09,175.43,150.18,175.43,150.24Z" style="fill: rgb(69, 90, 100); transform-origin: 173.547px 151.558px;" id="elt7uqd8bdqr" class="animable"></path><path d="M172.47,144.2a7.09,7.09,0,0,0-2.25.32c-1.18.47-1.68,1.45-1.81,1.39s0-.32.22-.72a3.12,3.12,0,0,1,3.18-1.34C172.27,144,172.5,144.14,172.47,144.2Z" style="fill: rgb(69, 90, 100); transform-origin: 170.415px 144.854px;" id="el6ou1u4c2gu4" class="animable"></path><path d="M172.46,136.93a13.1,13.1,0,0,0-2.11-.74,14.07,14.07,0,0,0-2.23.1s.17-.25.59-.43a3.4,3.4,0,0,1,3.31.49C172.37,136.64,172.5,136.89,172.46,136.93Z" style="fill: rgb(69, 90, 100); transform-origin: 170.293px 136.281px;" id="el72ge3wwbaf5" class="animable"></path><path d="M174.6,129.09c-.12.09-.79-.73-2-1a9.2,9.2,0,0,0-2.23,0c0-.05.18-.25.6-.41a3.13,3.13,0,0,1,1.75-.07,3.07,3.07,0,0,1,1.52.87C174.56,128.78,174.65,129.05,174.6,129.09Z" style="fill: rgb(69, 90, 100); transform-origin: 172.491px 128.307px;" id="eld1b2ng4ck35" class="animable"></path><path d="M180.29,124.47a14.42,14.42,0,0,0-1.13-2.14c-.8-1-1.86-1.46-1.81-1.6s1.29.09,2.22,1.28A2.75,2.75,0,0,1,180.29,124.47Z" style="fill: rgb(69, 90, 100); transform-origin: 178.847px 122.582px;" id="eldhyg9u1whos" class="animable"></path><path d="M180.65,196.57s50,140.45,53.76,146.92,56.48-9.38,56.48-9.38S299.63,275.92,303,271s22-66.42,22-66.42Z" style="fill: rgb(38, 50, 56); transform-origin: 252.825px 270.806px;" id="elaf3800zyov" class="animable"></path><path d="M318.51,116.73a30.36,30.36,0,0,0-2.07-26.21c-4.58-7.78-12.81-12.88-21.63-14.39a35.58,35.58,0,0,0-15.63.75c-3.09.87-1.78,5.7,1.33,4.83a29.81,29.81,0,0,1,22.63,2.61,24.59,24.59,0,0,1,12.22,18,25.81,25.81,0,0,1-1.67,13.07,2.51,2.51,0,0,0,1.75,3.08,2.56,2.56,0,0,0,3.07-1.75Z" style="fill: rgb(38, 50, 56); transform-origin: 298.986px 97.0699px;" id="elyn8bhoc5pwa" class="animable"></path><path d="M295.83,81.1c-.15,0,.1-1-.06-2.29s-.62-2.15-.49-2.23.85.8,1,2.17A3,3,0,0,1,295.83,81.1Z" style="fill: rgb(69, 90, 100); transform-origin: 295.805px 78.8375px;" id="el85w4amy46cf" class="animable"></path><path d="M305,80.27c.14,0,.41,1.06-.2,2.23s-1.67,1.57-1.71,1.44.73-.67,1.25-1.68S304.81,80.29,305,80.27Z" style="fill: rgb(69, 90, 100); transform-origin: 304.135px 82.1167px;" id="elg2zk2kchux" class="animable"></path><path d="M313.54,86.21A4.41,4.41,0,0,1,309.93,90c-.06-.15,1.06-.6,2.05-1.65S313.39,86.17,313.54,86.21Z" style="fill: rgb(69, 90, 100); transform-origin: 311.734px 88.1045px;" id="elzs06geqeu8q" class="animable"></path><path d="M318.93,97.33c.11.09-.61.91-1.87,1.14s-2.23-.28-2.16-.4,1,.1,2.06-.11S318.84,97.22,318.93,97.33Z" style="fill: rgb(69, 90, 100); transform-origin: 316.919px 97.922px;" id="el8udp4ioqse4" class="animable"></path><path d="M321.3,107.37a3.62,3.62,0,0,1-2.93-.62c-1.5-.89-2-2.28-1.9-2.32a17.5,17.5,0,0,0,2.17,1.88A18.87,18.87,0,0,0,321.3,107.37Z" style="fill: rgb(69, 90, 100); transform-origin: 318.879px 105.943px;" id="els4asb9ld1gn" class="animable"></path><path d="M184.71,322.53,233,312.36l-1-32.76,50.82-1.47-1.2,35s57.16,16.42,56.13,15.72-38.18,70.61-38.18,70.61l-61.08,5.07S190,369.33,190,368.38s-11.5-30.69-11.5-30.69Z" style="fill: rgb(38, 50, 56); transform-origin: 258.132px 341.33px;" id="elatv60o0o04" class="animable"></path><g id="el4nijzv9colo"><g style="opacity: 0.3; transform-origin: 258.657px 341.33px;" class="animable"><path d="M185.24,322.53l48.31-10.17-1-32.76,50.82-1.47-1.2,35s57.15,16.42,56.13,15.72-38.18,70.61-38.18,70.61l-61.08,5.07s-48.56-35.19-48.56-36.14S179,337.69,179,337.69Z" id="el9mgpo22bh1p" class="animable" style="transform-origin: 258.657px 341.33px;"></path></g></g><path d="M243.27,279.6h28.46a5.95,5.95,0,0,1,5.95,5.95v24a19.3,19.3,0,0,1-19.3,19.3h-1.76a19.3,19.3,0,0,1-19.3-19.3v-24A5.95,5.95,0,0,1,243.27,279.6Z" style="fill: rgb(69, 90, 100); transform-origin: 257.5px 304.225px;" id="elyx0rjo8nrza" class="animable"></path><path d="M278.2,306.2a2.93,2.93,0,0,1-.1.55,14.79,14.79,0,0,1-.42,1.54,20,20,0,0,1-2.64,5.23,22.22,22.22,0,0,1-6.26,6,20.36,20.36,0,0,1-20.47,1.21,22.35,22.35,0,0,1-6.93-5.24,19.58,19.58,0,0,1-3.23-4.88,13.49,13.49,0,0,1-.6-1.47,2.15,2.15,0,0,1-.16-.54s.32.7.94,1.92a21.28,21.28,0,0,0,3.33,4.73,22.6,22.6,0,0,0,6.86,5.05,20.06,20.06,0,0,0,20-1.19,22.54,22.54,0,0,0,6.22-5.82,21.47,21.47,0,0,0,2.75-5.09C278,306.93,278.14,306.19,278.2,306.2Z" style="fill: rgb(38, 50, 56); transform-origin: 257.795px 314.563px;" id="el362rhdf5r0k" class="animable"></path><path d="M277.79,302a1.79,1.79,0,0,1-.18.47,13,13,0,0,1-.65,1.28,20.51,20.51,0,0,1-3.15,4.25,23.34,23.34,0,0,1-6.28,4.71,22,22,0,0,1-18.73.86,23.34,23.34,0,0,1-6.68-4.12,20.88,20.88,0,0,1-3.52-3.94,11.77,11.77,0,0,1-.76-1.23,1.83,1.83,0,0,1-.23-.44,29.37,29.37,0,0,0,4.75,5.33,23.48,23.48,0,0,0,6.62,3.95,21.87,21.87,0,0,0,18.33-.83,23.85,23.85,0,0,0,6.24-4.54A29,29,0,0,0,277.79,302Z" style="fill: rgb(38, 50, 56); transform-origin: 257.7px 308.629px;" id="elsp95kbfnfb" class="animable"></path><path d="M277.48,295.86a2.52,2.52,0,0,1-.2.46c-.16.28-.34.73-.68,1.25a21,21,0,0,1-3.25,4.1,22.36,22.36,0,0,1-24.87,4.94,23.3,23.3,0,0,1-6.54-4.16,21.4,21.4,0,0,1-3.45-3.94c-.36-.5-.57-.94-.74-1.21a2.15,2.15,0,0,1-.22-.45,29.46,29.46,0,0,0,4.65,5.32,23.77,23.77,0,0,0,6.49,4,22.75,22.75,0,0,0,9.12,1.75,23,23,0,0,0,9-2.19,24,24,0,0,0,6.29-4.31A29.48,29.48,0,0,0,277.48,295.86Z" style="fill: rgb(38, 50, 56); transform-origin: 257.505px 302.147px;" id="el6pflwgqrw2n" class="animable"></path><path d="M277.82,288.59a2.42,2.42,0,0,1-.23.42c-.18.27-.4.68-.77,1.16A22.79,22.79,0,0,1,273.4,294a24.89,24.89,0,0,1-31.26,1.62,22.9,22.9,0,0,1-3.8-3.41c-.41-.44-.68-.83-.88-1.08a1.9,1.9,0,0,1-.27-.4,17,17,0,0,1,1.3,1.34,26.3,26.3,0,0,0,3.86,3.25,25.83,25.83,0,0,0,6.68,3.31,25,25,0,0,0,9,1.24,25.35,25.35,0,0,0,8.83-2.16,26.21,26.21,0,0,0,9.8-7.62A16.12,16.12,0,0,1,277.82,288.59Z" style="fill: rgb(38, 50, 56); transform-origin: 257.505px 294.481px;" id="el72y6mptxxyk" class="animable"></path><path d="M277.82,281.34a2.42,2.42,0,0,1-.23.42c-.18.27-.4.68-.77,1.16a22.79,22.79,0,0,1-3.42,3.79,24.89,24.89,0,0,1-31.26,1.62,22.9,22.9,0,0,1-3.8-3.41c-.41-.44-.68-.83-.88-1.08a1.9,1.9,0,0,1-.27-.4,17,17,0,0,1,1.3,1.34,26.3,26.3,0,0,0,3.86,3.25,25.83,25.83,0,0,0,6.68,3.31,25,25,0,0,0,9,1.24,25.35,25.35,0,0,0,8.83-2.16,26.21,26.21,0,0,0,9.8-7.62A16.12,16.12,0,0,1,277.82,281.34Z" style="fill: rgb(38, 50, 56); transform-origin: 257.505px 287.211px;" id="el7zjhxq17ea8" class="animable"></path><path d="M201.19,201.09c.06,10-4.78,19.12-10.45,27.06-6,8.41-13.18,16-18.44,24.94-9.09,15.49-12.81,34.23-8.16,51.77a62.64,62.64,0,0,0,14.75,26.39c2.18,2.36,5.71-1.18,3.53-3.54A56.35,56.35,0,0,1,167.64,281a68.49,68.49,0,0,1,8.46-24.43c5.05-8.87,12-16.39,18-24.58,6.59-9,12.12-19.43,12.05-30.85,0-3.22-5-3.23-5,0Z" style="fill: rgb(38, 50, 56); transform-origin: 184.142px 265.375px;" id="el8oat5318zmr" class="animable"></path><path d="M171.36,267.42a3,3,0,0,1-2.74-.11c-1.49-.65-2.06-1.93-1.93-2s.82.92,2.14,1.48A13.89,13.89,0,0,0,171.36,267.42Z" style="fill: rgb(69, 90, 100); transform-origin: 169.016px 266.503px;" id="el3treskakaev" class="animable"></path><path d="M174.48,260.49a3.5,3.5,0,0,1-2.84-.47c-1.48-.79-2.06-2.09-1.93-2.14a18.6,18.6,0,0,0,2.18,1.69A21,21,0,0,0,174.48,260.49Z" style="fill: rgb(69, 90, 100); transform-origin: 172.086px 259.244px;" id="ellmrq3lgrqaq" class="animable"></path><path d="M178,253.53c0,.07-.33.12-.84,0a4.13,4.13,0,0,1-1.82-.91,4,4,0,0,1-1.17-1.65c-.18-.49-.18-.82-.12-.83s.51,1.15,1.63,2.09A11.86,11.86,0,0,0,178,253.53Z" style="fill: rgb(69, 90, 100); transform-origin: 176.007px 251.871px;" id="el3vu7xdnw0j5" class="animable"></path><path d="M184,245.57c0,.06-.34.09-.87-.06a4.3,4.3,0,0,1-1.79-1.11,4.17,4.17,0,0,1-1-1.83c-.13-.52-.09-.86,0-.87a6.52,6.52,0,0,0,3.73,3.87Z" style="fill: rgb(69, 90, 100); transform-origin: 182.163px 243.66px;" id="ela7rgq7it4ve" class="animable"></path><path d="M190.27,237.89c0,.07-.37.09-.92-.06a4.72,4.72,0,0,1-1.9-1.11,4.66,4.66,0,0,1-1.19-1.86c-.18-.54-.17-.9-.11-.91a12.8,12.8,0,0,0,1.66,2.39A12,12,0,0,0,190.27,237.89Z" style="fill: rgb(69, 90, 100); transform-origin: 188.19px 235.947px;" id="elsgwlgb9qnj" class="animable"></path><path d="M168.28,277.46c0,.06-.25.24-.76.36a4.22,4.22,0,0,1-2-.07,3.22,3.22,0,0,1-2.25-1.66,16.93,16.93,0,0,0,2.39,1.15A12.67,12.67,0,0,0,168.28,277.46Z" style="fill: rgb(69, 90, 100); transform-origin: 165.775px 276.999px;" id="eluo8l5zeti0j" class="animable"></path><path d="M167.09,287.35a3.51,3.51,0,0,1-2.49.67,3.47,3.47,0,0,1-2.46-.79c.06-.14,1.12.24,2.47.27S167,287.2,167.09,287.35Z" style="fill: rgb(69, 90, 100); transform-origin: 164.615px 287.621px;" id="ele9434gxq43c" class="animable"></path><path d="M168.37,299.76a4.91,4.91,0,0,1-5.19.43c0-.15,1.19.14,2.61,0S168.3,299.62,168.37,299.76Z" style="fill: rgb(69, 90, 100); transform-origin: 165.775px 300.234px;" id="eldxk8x4kr1ug" class="animable"></path><path d="M172,312.25a3.56,3.56,0,0,1-2.27,1.27,3.47,3.47,0,0,1-2.59-.15c0-.15,1.15,0,2.47-.36S171.86,312.12,172,312.25Z" style="fill: rgb(69, 90, 100); transform-origin: 169.57px 312.966px;" id="el6bc1c1fixhq" class="animable"></path><path d="M314.91,214.7c-7,16.1-3.77,34.08,2.38,49.9,6.46,16.6,15.95,32.19,19.21,49.9,1.71,9.32,1.47,19-2.07,27.9a2.52,2.52,0,0,0,1.74,3.07,2.56,2.56,0,0,0,3.08-1.75c6.54-16.37,2.4-34.66-4-50.39-6.59-16.24-15.77-31.72-18.6-49.25-1.43-8.92-1.08-18.48,2.56-26.86a2.58,2.58,0,0,0-.89-3.42,2.52,2.52,0,0,0-3.42.9Z" style="fill: rgb(38, 50, 56); transform-origin: 326.753px 279.507px;" id="eluzlw14ld6ek" class="animable"></path><path d="M332.49,286.05c.06,0,0,.38-.35.85a3.73,3.73,0,0,1-1.79,1.32,3.52,3.52,0,0,1-2.22,0c-.55-.18-.81-.44-.78-.49a5.85,5.85,0,0,0,2.83,0A6.78,6.78,0,0,0,332.49,286.05Z" style="fill: rgb(69, 90, 100); transform-origin: 329.929px 287.225px;" id="elnn70onv3qid" class="animable"></path><path d="M326.53,273.47c.06,0,0,.35-.35.76a3.73,3.73,0,0,1-3.66,1.26c-.51-.13-.77-.33-.74-.39a5.32,5.32,0,0,0,4.75-1.63Z" style="fill: rgb(69, 90, 100); transform-origin: 324.164px 274.523px;" id="eltu6jvybrww" class="animable"></path><path d="M320.64,259c.11.07-.63,1.16-2.09,1.76a3.21,3.21,0,0,1-2.73.14,24.94,24.94,0,0,0,2.53-.62C319.67,259.78,320.52,258.92,320.64,259Z" style="fill: rgb(69, 90, 100); transform-origin: 318.235px 260.067px;" id="elfbj6syz162r" class="animable"></path><path d="M317,245.51c.13.05-.36,1.25-1.59,2.21a3.69,3.69,0,0,1-2.51,1c-.05-.14,1.07-.55,2.19-1.44S316.91,245.44,317,245.51Z" style="fill: rgb(69, 90, 100); transform-origin: 314.959px 247.113px;" id="elwf7g0guycl" class="animable"></path><path d="M338.23,302c.1.09-.63.9-1.89,1.23a2.67,2.67,0,0,1-2.25-.12c0-.15,1-.07,2.12-.38S338.13,301.84,338.23,302Z" style="fill: rgb(69, 90, 100); transform-origin: 336.165px 302.698px;" id="el8kek59fdxqj" class="animable"></path><path d="M342.39,318.81a5,5,0,0,1-5.29.58c0-.15,1.23.13,2.67,0S342.32,318.68,342.39,318.81Z" style="fill: rgb(69, 90, 100); transform-origin: 339.745px 319.342px;" id="el9feqfzimoug" class="animable"></path><path d="M314.05,102.33c-12.21-19.94-34.78-31.28-55.53-31.7s-41.95,8.09-57.82,24l13.63,14.79L302.67,111Z" style="fill: rgb(38, 50, 56); transform-origin: 257.375px 90.8076px;" id="eln4wau9wa5s" class="animable"></path><path d="M201.63,93.69s-21.1,16.3-16.36,48.45c3,20.33,36.13-.69,36.13-.69l10-37Z" style="fill: rgb(38, 50, 56); transform-origin: 207.988px 122.345px;" id="el6c7uy94s1zy" class="animable"></path><path d="M309.29,96.7s18.33,18.32,16,38.75-36.75,6.38-36.75,6.38l-10-37Z" style="fill: rgb(38, 50, 56); transform-origin: 302.017px 121.62px;" id="elv3c110yzexe" class="animable"></path><path d="M234,272.81c-1.87,13.38-3.44,26.78-1.3,40.23a47.69,47.69,0,0,0,5.66,16.79,61,61,0,0,0,7.27,9.93A146.63,146.63,0,0,0,259,352.23c1.22,1,3-.72,1.77-1.77-7.11-6.09-14.26-12.23-19.29-20.24-6.24-9.94-7.64-22-7.41-33.51a196.86,196.86,0,0,1,2.29-23.23c.22-1.57-2.19-2.25-2.41-.67Z" style="fill: rgb(38, 50, 56); transform-origin: 246.427px 312.221px;" id="elmwok4jhy64n" class="animable"></path><path d="M278.77,273.48c1.82,13,3.4,26.21,1.23,39.31A45.49,45.49,0,0,1,274.42,329a56.48,56.48,0,0,1-7,9.46,153,153,0,0,1-13,12c-1.22,1.05.55,2.81,1.77,1.77,7.37-6.31,14.66-12.68,19.83-21,6.37-10.22,7.83-22.7,7.61-34.53a201.92,201.92,0,0,0-2.39-23.9c-.22-1.58-2.63-.91-2.41.67Z" style="fill: rgb(38, 50, 56); transform-origin: 268.83px 312.223px;" id="el0u49iqe1ixlo" class="animable"></path><path d="M200.59,355.33a31.18,31.18,0,0,0,10.93-13.7,47.33,47.33,0,0,0,3.18-15.39c.28-4.72.18-9.49.09-14.22-.17-8.5-1-17,0-25.53.92-7.91,3.58-15.92,9.25-21.7,1.12-1.15-.64-2.92-1.77-1.77-11,11.19-10.75,27.8-10.19,42.37.23,5.71.35,11.43.26,17.15a55,55,0,0,1-1.93,14.78,29.28,29.28,0,0,1-11.07,15.85c-1.31.92-.06,3.09,1.26,2.16Z" style="fill: rgb(38, 50, 56); transform-origin: 211.592px 309.102px;" id="el4v3sgl1ujks" class="animable"></path><path d="M315.72,322.69c-.65-7.12-1.28-14.28-2.53-21.32a67.39,67.39,0,0,0-3.8-12.23c-2-5.24-4.22-10.41-5.92-15.77-1.93-6.12-3.15-12.44-2.56-18.87.22-2.4-3.53-2.39-3.75,0-1.05,11.47,3.37,22.32,7.5,32.77,1.72,4.37,3.62,8.82,4.59,13.44.74,3.51,1.16,7.08,1.57,10.64.44,3.77.8,7.56,1.15,11.34.22,2.38,4,2.41,3.75,0Z" style="fill: rgb(38, 50, 56); transform-origin: 306.368px 288.595px;" id="el11462tki5ill" class="animable"></path><path d="M314.47,353.17c-9.39-5.22-12.36-17.07-13.54-27a143.76,143.76,0,0,1-.87-15.66c-.08-8.3.17-16.68-1.43-24.87-1.5-7.71-4.72-15.29-10.53-20.73-1.17-1.1-3,.66-1.77,1.76,11.91,11.17,11.08,28.88,11.23,43.84.1,10.36.57,21.34,4.49,31.06,2.26,5.61,5.78,10.74,11.16,13.73,1.41.78,2.67-1.38,1.26-2.16Z" style="fill: rgb(38, 50, 56); transform-origin: 300.504px 310.014px;" id="el26tm1t4qlve" class="animable"></path><path d="M296.65,262.62s-4.77,22-4.35,31.84.88,20.73.88,20.73l-11,.47s3.14-20.3,4.67-30.06A160.78,160.78,0,0,1,291.66,265" style="fill: rgb(69, 90, 100); transform-origin: 289.415px 289.14px;" id="el8npcv9z0unj" class="animable"></path><path d="M213.7,261.1s5.69,21.76,5.69,31.63v20.75h11s-4-20.15-5.93-29.83a163.36,163.36,0,0,0-5.7-20.39" style="fill: rgb(69, 90, 100); transform-origin: 222.045px 287.29px;" id="eljvjf9v2jjul" class="animable"></path><path d="M233.07,76.36a6,6,0,0,1,.41,1.16c.27.86.6,1.93,1,3.2.83,2.7,2,6.42,3.41,10.49s2.79,7.73,3.81,10.36l1.2,3.12a6.18,6.18,0,0,1,.39,1.17,4.74,4.74,0,0,1-.58-1.09c-.34-.71-.8-1.76-1.35-3.06-1.11-2.61-2.55-6.24-4-10.33s-2.53-7.83-3.27-10.56c-.37-1.36-.66-2.47-.83-3.25A4.84,4.84,0,0,1,233.07,76.36Z" style="fill: rgb(69, 90, 100); transform-origin: 238.18px 91.11px;" id="eluy9xnjfdya9" class="animable"></path><path d="M277.48,75.29c.14,0-2.06,7-4.92,15.54s-5.27,15.42-5.41,15.38,2.07-7,4.92-15.54S277.35,75.25,277.48,75.29Z" style="fill: rgb(69, 90, 100); transform-origin: 272.315px 90.75px;" id="elh9kd6zteiln" class="animable"></path><path d="M336.85,157.34a46.33,46.33,0,0,1-7.73,50.88Z" style="fill: rgb(224, 224, 224); transform-origin: 335.172px 182.78px;" id="elkhb1saf8mrq" class="animable"></path><g id="elr3ok7svpjnm"><path d="M318.32,143.59h1.34a14.72,14.72,0,0,1,14.72,14.72v42.51a14.72,14.72,0,0,1-14.72,14.72h-1.34a14.71,14.71,0,0,1-14.71-14.71V158.31a14.72,14.72,0,0,1,14.72-14.72Z" style="fill: rgb(173, 217, 13); transform-origin: 318.995px 179.565px; transform: rotate(-173.47deg);" class="animable"></path></g><path d="M337.31,195.44a4.27,4.27,0,0,1-.21-1.11c-.11-.73-.22-1.78-.31-3.09A59.73,59.73,0,0,1,338.93,171c.36-1.26.68-2.27.94-3a4.93,4.93,0,0,1,.44-1c.08,0-.4,1.57-1,4.09a72.23,72.23,0,0,0-2.12,20.15C337.24,193.83,337.39,195.44,337.31,195.44Z" style="fill: rgb(38, 50, 56); transform-origin: 338.49px 181.22px;" id="elopc4611wldd" class="animable"></path><path d="M337.64,182.28c-.09.12-.73-.22-1.58-.35s-1.56,0-1.6-.18.7-.5,1.69-.33S337.74,182.18,337.64,182.28Z" style="fill: rgb(38, 50, 56); transform-origin: 336.055px 181.838px;" id="el1ppa2huff4k" class="animable"></path><path d="M173.58,156.86a46.31,46.31,0,0,0,8.5,50.76Z" style="fill: rgb(224, 224, 224); transform-origin: 175.787px 182.24px;" id="eltmk7pmce0f7" class="animable"></path><g id="elqf83pmqt4s"><path d="M191.11,142.84h1.34a14.71,14.71,0,0,1,14.71,14.71v42.51a14.72,14.72,0,0,1-14.72,14.72h-1.34a14.71,14.71,0,0,1-14.71-14.71V157.55a14.72,14.72,0,0,1,14.72-14.72Z" style="fill: rgb(173, 217, 13); transform-origin: 191.775px 178.805px; transform: rotate(-7.41deg);" class="animable"></path></g><path d="M201.83,318c.14-3.69.27-7.39.48-11.07a77.19,77.19,0,0,1,1.2-11.46,88.32,88.32,0,0,1,4.38-13.13,90,90,0,0,0,4-13.25,48.06,48.06,0,0,0,.84-16.52,1.88,1.88,0,0,0-2.3-1.31,1.93,1.93,0,0,0-1.31,2.31c1.25,9.35-1.51,18.9-4.81,27.56A96.72,96.72,0,0,0,200,293.84a74.41,74.41,0,0,0-1.4,11.72c-.26,4.15-.4,8.3-.56,12.46-.08,2.41,3.67,2.41,3.75,0Z" style="fill: rgb(38, 50, 56); transform-origin: 205.563px 285.511px;" id="elxyqu1h7ixc" class="animable"></path><path d="M203.44,105.78H242.7a4.3,4.3,0,0,0,1.77-.38l.34-.16a24.71,24.71,0,0,1,20.83.13h0a4.25,4.25,0,0,0,1.82.41h40a4.06,4.06,0,0,1,3.81,2.51l14,35.41a3.73,3.73,0,0,1,.26,1.36v26.8s-6.83,49-11.65,65-24.52,38.69-36.16,44.81-30.75,5.6-44.87-2.09c-13.14-7.16-30.21-20.94-37.44-45s-10.72-62.74-10.72-62.74l-.15-27.12a3.67,3.67,0,0,1,.29-1.47l14.88-35.06A4.06,4.06,0,0,1,203.44,105.78Z" style="fill: rgb(224, 224, 224); transform-origin: 255.035px 194.426px;" id="elb7441q8jh6c" class="animable"></path><path d="M325.49,165.73l-.76,0-2.28,0h0l0,0c-2.07-4.85-6.8-15.9-13.4-31.32v-.08c0-1.09,0-2.2,0-3.33a26.53,26.53,0,0,0-.14-3.44,17.51,17.51,0,0,0-15-15.14,29.11,29.11,0,0,0-4.2-.16h-11a11.4,11.4,0,0,0-2.2.16,7.89,7.89,0,0,0-6.13,5.84,8.19,8.19,0,0,0-.24,2.27v7.31L270,128l-7.43,4.25-.06,0H249.06l-.05,0-8.23-4-.15-.07v-7.63a8.07,8.07,0,0,0-.26-2.36,7.86,7.86,0,0,0-6.61-5.79,19.71,19.71,0,0,0-2.32-.07H213.39a12.22,12.22,0,0,0-2.11.12,10.09,10.09,0,0,0-3.82,1.46,10,10,0,0,0-4.39,6.35,18,18,0,0,0-.23,3.81v3.76c0,2.46,0,4.83,0,7.11V135l-13.66,30.79,0,0h0l-3.37,0c-.73,0-1.07,0-1.07,0s.34,0,1.07,0l3.37,0-.06,0,13.43-30.89v.07c0-2.28,0-4.65,0-7.11V124a18.45,18.45,0,0,1,.21-3.9,10.44,10.44,0,0,1,8.57-8.17,12.23,12.23,0,0,1,2.18-.14h18.05a19.31,19.31,0,0,1,2.39.07,8.36,8.36,0,0,1,7,6.16,9.12,9.12,0,0,1,.29,2.49V128l-.15-.24,8.24,4-.12,0h13.29l-.13,0,7.44-4.25-.13.22v-7.16a8.76,8.76,0,0,1,.26-2.39,8.4,8.4,0,0,1,6.52-6.21,11.23,11.23,0,0,1,2.3-.16h11a28.81,28.81,0,0,1,4.26.18,17.86,17.86,0,0,1,15.32,15.55,25.79,25.79,0,0,1,.14,3.49c0,1.13,0,2.24,0,3.33v-.07c6.48,15.48,11.12,26.56,13.16,31.42l-.05,0,2.28,0Z" style="fill: rgb(38, 50, 56); transform-origin: 255.115px 138.785px;" id="el4h1gbnm3kmp" class="animable"></path><path d="M250.35,123.57H259a1.65,1.65,0,0,1,1.65,1.65V132a0,0,0,0,1,0,0h-12a0,0,0,0,1,0,0v-6.75A1.65,1.65,0,0,1,250.35,123.57Z" style="fill: rgb(38, 50, 56); transform-origin: 254.65px 127.785px;" id="elp0ve0870kv" class="animable"></path><path d="M253.69,185.31a4,4,0,0,1-.57.17l-1.66.42c-.73.16-1.62.43-2.65.73s-2.2.69-3.51,1.12a74.81,74.81,0,0,0-9,3.87,61.82,61.82,0,0,0-10.48,6.66l0,0-.05,0a64.13,64.13,0,0,1-14.36,2,18.76,18.76,0,0,1-9-2,17.84,17.84,0,0,1-6.42-5.69c-.2-.29-.38-.58-.56-.86s-.32-.62-.47-.93c-.24-.63-.5-1.24-.69-1.86-.41-1.23-.74-2.44-1.06-3.62-.62-2.34-1.12-4.55-1.57-6.56-.88-4-1.51-7.3-1.93-9.57l-.45-2.62c-.05-.27-.08-.5-.11-.68a.65.65,0,0,1,0-.24,1,1,0,0,1,.07.23l.15.67c.13.64.32,1.51.55,2.6.48,2.25,1.16,5.52,2.09,9.53.47,2,1,4.2,1.63,6.53.32,1.17.66,2.37,1.08,3.58.18.62.45,1.21.68,1.82.14.29.29.58.44.87s.36.56.55.83a17.41,17.41,0,0,0,6.27,5.51,18.16,18.16,0,0,0,8.76,1.9,64.5,64.5,0,0,0,14.24-2l-.1.05a61.29,61.29,0,0,1,10.61-6.66,70.5,70.5,0,0,1,9.09-3.78c1.32-.42,2.49-.81,3.55-1.06s1.93-.52,2.67-.66l1.68-.34A3,3,0,0,1,253.69,185.31Z" style="fill: rgb(255, 255, 255); transform-origin: 221.414px 182.969px;" id="elz22ovmxxjat" class="animable"></path><path d="M253.69,185.31a3.19,3.19,0,0,1,.68,0l2,.08a47,47,0,0,1,7.27,1.07,53.89,53.89,0,0,1,22.31,11.45l-.1-.06a67.43,67.43,0,0,0,12.19,1.9,32.22,32.22,0,0,0,4.82-.06,16.82,16.82,0,0,0,11.5-6.3,16.42,16.42,0,0,0,1.22-1.69,11.05,11.05,0,0,0,.85-1.81c.47-1.25.84-2.5,1.19-3.72.69-2.43,1.24-4.72,1.74-6.81,1-4.2,1.69-7.61,2.19-10,.24-1.15.43-2,.58-2.72l.15-.7a.75.75,0,0,1,.08-.24,2.09,2.09,0,0,1,0,.25c0,.19-.07.43-.11.71-.12.67-.28,1.58-.48,2.74-.44,2.37-1.1,5.79-2,10-.48,2.1-1,4.4-1.68,6.85-.35,1.22-.71,2.49-1.19,3.76A11.62,11.62,0,0,1,316,192a18.85,18.85,0,0,1-1.24,1.73,17.42,17.42,0,0,1-7.18,5.37,17.62,17.62,0,0,1-4.64,1.14,32.15,32.15,0,0,1-4.91.07,66.64,66.64,0,0,1-12.29-1.93h-.06l-.05,0a46.47,46.47,0,0,0-5.83-4.38,56.07,56.07,0,0,0-5.82-3.3,55.12,55.12,0,0,0-10.4-3.83,51.31,51.31,0,0,0-7.21-1.21l-1.95-.16A5.2,5.2,0,0,1,253.69,185.31Z" style="fill: rgb(255, 255, 255); transform-origin: 288.027px 183.036px;" id="el2bg3n9yp1os" class="animable"></path><path d="M211.37,263.17a2.5,2.5,0,0,1,.41-.17l1.21-.43,4.6-1.54-.11.15c-.37-3.2-.86-7.4-1.43-12.27-.14-1.22-.28-2.49-.43-3.8s-.35-2.63-.63-4c-.5-2.71-1.19-5.53-1.93-8.42-2.49-9.47-5.23-17.91-7.22-24l-2.38-7.21c-.27-.82-.48-1.47-.64-2a3.19,3.19,0,0,1-.2-.7,3.79,3.79,0,0,1,.29.66c.19.5.43,1.14.74,1.94.62,1.68,1.5,4.13,2.54,7.16,2.08,6.08,4.88,14.51,7.37,24,.75,2.9,1.43,5.72,1.92,8.46.29,1.36.44,2.72.62,4s.28,2.57.41,3.8c.51,4.88.94,9.09,1.27,12.3l0,.12-.12,0-4.64,1.4-1.23.35A1.9,1.9,0,0,1,211.37,263.17Z" style="fill: rgb(38, 50, 56); transform-origin: 210.2px 230.975px;" id="elvl96yrvl8x" class="animable"></path><path d="M299.86,264a2,2,0,0,1-.43-.1l-1.24-.35-4.63-1.4-.12,0V262c.34-3.26.79-7.54,1.3-12.52.14-1.25.27-2.55.42-3.88s.36-2.72.65-4.1c.49-2.8,1.19-5.68,1.92-8.65,2.47-9.65,5.19-18.25,7.21-24.45,1-3.1,1.87-5.6,2.47-7.32l.72-2a4.43,4.43,0,0,1,.28-.67,4.19,4.19,0,0,1-.18.71c-.16.5-.37,1.17-.62,2-.57,1.8-1.35,4.3-2.32,7.37-1.93,6.23-4.59,14.84-7.05,24.47-.73,3-1.43,5.83-1.94,8.61-.29,1.38-.45,2.74-.66,4.06s-.3,2.63-.44,3.88L293.75,262l-.1-.15,4.59,1.54,1.21.43A1.75,1.75,0,0,1,299.86,264Z" style="fill: rgb(38, 50, 56); transform-origin: 300.925px 231.205px;" id="eldc1omtnrim" class="animable"></path><path d="M225.66,198.09a5,5,0,0,1,.36,1.15c.19.76.43,1.86.64,3.24a21.67,21.67,0,0,1,.23,4.92,5.13,5.13,0,0,1-1,2.82,7.31,7.31,0,0,1-2.82,1.49,38.59,38.59,0,0,1-5.87,1.29c-1.83.27-3.48.44-4.86.57s-2.51.21-3.28.26a9.89,9.89,0,0,1-1.21,0,27.31,27.31,0,0,1,4.45-.67c1.38-.18,3-.39,4.82-.69a40.35,40.35,0,0,0,5.78-1.3,7,7,0,0,0,2.62-1.35,4.81,4.81,0,0,0,.88-2.52,22.72,22.72,0,0,0-.12-4.82c-.15-1.37-.34-2.48-.46-3.24A7.29,7.29,0,0,1,225.66,198.09Z" style="fill: rgb(255, 255, 255); transform-origin: 217.394px 205.969px;" id="el7hynpybazwy" class="animable"></path><path d="M286.38,198.39a5.27,5.27,0,0,1-.15,1.14c-.12.72-.3,1.77-.45,3.08a24.44,24.44,0,0,0-.18,4.58,6.43,6.43,0,0,0,.6,2.54,4.07,4.07,0,0,0,2.21,1.55,29.42,29.42,0,0,0,5.45,1.34c1.71.28,3.27.47,4.58.62a24.36,24.36,0,0,1,4.23.61,8.34,8.34,0,0,1-1.15,0c-.73,0-1.8-.1-3.12-.21s-2.88-.26-4.62-.52a27.67,27.67,0,0,1-5.56-1.32,8.13,8.13,0,0,1-1.39-.68,2.91,2.91,0,0,1-1.08-1.12,6.82,6.82,0,0,1-.63-2.75,22.74,22.74,0,0,1,.3-4.66c.2-1.31.43-2.36.61-3.08A5,5,0,0,1,286.38,198.39Z" style="fill: rgb(255, 255, 255); transform-origin: 293.887px 206.13px;" id="el1tb152t6kcx" class="animable"></path><path d="M293.6,259.72a3.9,3.9,0,0,1-.2.77l-.7,2.24v0l0,0c-2.55,1.94-7.09,5.35-13,9.55-1.49,1-3.05,2.14-4.73,3.24-.83.54-1.7,1.09-2.6,1.62-.47.24-.94.5-1.42.73s-1,.44-1.49.63A43.7,43.7,0,0,1,256,281h-.7v-.52h.15c0-.46,0,.63,0,.52h-.71l-.86,0c-.57,0-1.14-.06-1.7-.1-1.13-.08-2.25-.2-3.34-.38a31.66,31.66,0,0,1-6.27-1.6,28.39,28.39,0,0,1-5.37-2.81c-1.64-1-3.19-2.05-4.66-3-5.87-3.91-10.45-7.12-13.17-9v0L218,261.77c-.12-.24-.23-.43-.31-.59l-.1-.2s.06,0,.14.18.22.33.36.56c.34.53.79,1.26,1.36,2.18l0,0c2.77,1.85,7.39,5,13.28,8.86q2.22,1.45,4.68,3a27.56,27.56,0,0,0,5.29,2.75,32.13,32.13,0,0,0,6.18,1.55c1.08.17,2.18.3,3.3.38.55,0,1.12.07,1.68.09l.85,0h.7c0-.11,0,1,0,.52h-.15v-.52h.68a43.45,43.45,0,0,0,13.3-2.42c.5-.18,1-.41,1.46-.61s.93-.47,1.39-.7c.89-.51,1.75-1,2.59-1.6,1.67-1.08,3.24-2.17,4.74-3.19,5.95-4.15,10.53-7.49,13.14-9.36l0,.05c.34-.94.6-1.67.79-2.21A7.82,7.82,0,0,1,293.6,259.72Z" style="fill: rgb(38, 50, 56); transform-origin: 255.595px 270.445px;" id="el1q5sayazfp3" class="animable"></path><path d="M264.32,216.46c0,.2-1,.19-2.52.75-.79.27-1.72.68-2.86,1.16a12.78,12.78,0,0,1-4.27,1.12H254c-.26,0-.48-.06-.69-.09-.42-.07-.84-.16-1.26-.25a24.19,24.19,0,0,1-2.64-.74,7.75,7.75,0,0,1-.72-.29c-.12-.05-.26-.13-.41-.21a2.54,2.54,0,0,1-.49-.39,3.89,3.89,0,0,1-1-1.72,5.73,5.73,0,0,1-.18-1.83c.06-.65.14-1.06.21-1.59.58-4,1.25-8.43,2-13.06,1.46-9.26,2.87-17.63,4-23.67s1.91-9.77,2.26-9.73c.76.1-.72,15.27-3.67,33.8-.72,4.64-1.46,9-2.17,13a6.2,6.2,0,0,0-.19,2.47,1.8,1.8,0,0,0,.36.76l0,0h0c.06-.07-.59.59-.29.29l0,0,.17-.17.07-.08h0s0,0,0,0l.2.11.53.25c.76.31,1.58.57,2.36.8.39.12.77.22,1.13.31l.5.1.49,0a12.66,12.66,0,0,0,3.79-.66,26.38,26.38,0,0,1,3.09-.76C263.35,215.93,264.36,216.31,264.32,216.46Z" style="fill: rgb(38, 50, 56); transform-origin: 255.46px 192.705px;" id="elue3znu956s9" class="animable"></path><path d="M267.06,243.14a3.15,3.15,0,0,1-.56.8,12.63,12.63,0,0,1-1.94,1.86,14.35,14.35,0,0,1-16.72.76,13.24,13.24,0,0,1-2.1-1.67c-.44-.45-.66-.73-.63-.76a33.73,33.73,0,0,0,2.92,2.12,14.71,14.71,0,0,0,16.31-.74C266.14,244.2,267,243.07,267.06,243.14Z" style="fill: rgb(38, 50, 56); transform-origin: 256.084px 246.011px;" id="el8ysrj4it0pn" class="animable"></path><path d="M324.2,138.53a19.68,19.68,0,0,1-1.95,2.67c-1.27,1.6-3.1,3.75-5.21,6s-4.14,4.26-5.64,5.65a19,19,0,0,1-2.52,2.14,23.24,23.24,0,0,1,2.27-2.41c1.43-1.45,3.39-3.46,5.5-5.73s4-4.38,5.32-5.92A22.82,22.82,0,0,1,324.2,138.53Z" style="fill: rgb(38, 50, 56); transform-origin: 316.54px 146.76px;" id="el5y8gvv7x7u8" class="animable"></path><path d="M258,131a6,6,0,0,1,.16,1.37c.07,1,.15,2.24.24,3.74.18,3.16.4,7.53.6,12.35s0,9.31,1.55,12.07a7,7,0,0,0,2.44,2.69c.74.46,1.23.56,1.21.61s-.12,0-.35-.05a4.46,4.46,0,0,1-1-.39,6.81,6.81,0,0,1-2.66-2.68,13,13,0,0,1-1.42-5.42c-.15-2.1-.22-4.39-.33-6.81-.2-4.82-.36-9.19-.44-12.35,0-1.51-.06-2.77-.08-3.75A8.75,8.75,0,0,1,258,131Z" style="fill: rgb(38, 50, 56); transform-origin: 261.059px 147.425px;" id="el7fyy4k57mwd" class="animable"></path><path d="M251,131a6.46,6.46,0,0,1,0,1.38c0,1,0,2.24-.07,3.75-.09,3.16-.24,7.53-.44,12.35-.12,2.42-.19,4.71-.33,6.81a12.85,12.85,0,0,1-1.43,5.42,6.8,6.8,0,0,1-2.65,2.68,4.67,4.67,0,0,1-1,.39c-.23.05-.35.07-.36.05s.48-.15,1.22-.61a7.08,7.08,0,0,0,2.43-2.69c1.58-2.76,1.28-7.28,1.56-12.07s.41-9.19.59-12.35c.1-1.5.18-2.76.24-3.74A6.8,6.8,0,0,1,251,131Z" style="fill: rgb(38, 50, 56); transform-origin: 247.878px 147.419px;" id="elzffqisa2mp" class="animable"></path><g id="elg0185k5wadi"><g style="opacity: 0.1; transform-origin: 255.685px 234.607px;" class="animable"><path d="M242.76,234.81c1.4-1.28,3.23-3.26,4.84-4.12s3.74-.64,5.49-.23a12.63,12.63,0,0,0,3.15.78,9.24,9.24,0,0,0,2.66-.76c3.06-1,5.32,0,7.84,2.24,1.94,1.74,4.47,4,5.76,6.39a24.62,24.62,0,0,1-6.46-1.8c-2.13-.74-4.41-1.28-6.56-.61-1.62.51-3.09,1.68-4.76,1.82-2.64.22-5-2.19-7.62-2.32a7.82,7.82,0,0,0-3.42.85c-.9.39-3.89,2.24-4.81,2.06C238.87,238.44,242,235.48,242.76,234.81Z" id="elidszl3nmiom" class="animable" style="transform-origin: 255.685px 234.607px;"></path></g></g><path d="M186.11,139.85a22.46,22.46,0,0,1,1.88,2.57c1.12,1.62,2.67,3.85,4.44,6.27s3.4,4.59,4.6,6.15a20.76,20.76,0,0,1,1.86,2.59,18.86,18.86,0,0,1-2.15-2.36c-1.27-1.5-3-3.64-4.73-6.07s-3.28-4.7-4.33-6.37A17.18,17.18,0,0,1,186.11,139.85Z" style="fill: rgb(38, 50, 56); transform-origin: 192.5px 148.64px;" id="ely3j74cw0gdf" class="animable"></path><path d="M224,202.5a1.33,1.33,0,1,1-1.32-1.33A1.33,1.33,0,0,1,224,202.5Z" style="fill: rgb(255, 255, 255); transform-origin: 222.67px 202.5px;" id="elot3j7ttv3h" class="animable"></path><path d="M290.73,202.5a1.33,1.33,0,1,1-1.32-1.33A1.33,1.33,0,0,1,290.73,202.5Z" style="fill: rgb(255, 255, 255); transform-origin: 289.4px 202.5px;" id="elr85jtlahb5" class="animable"></path><path d="M276.53,240.68a.94.94,0,0,1,.15.18c.09.12.23.3.4.56a6.84,6.84,0,0,1,.71,2.52c.26,2.29-.25,5.6-1.24,9.54-.48,2-1.07,4.11-1.68,6.42a27.93,27.93,0,0,1-1.05,3.57,11.43,11.43,0,0,1-2,3.48A7.32,7.32,0,0,1,268,268.6c-1.38.28-2.8.52-4.26.7a58.61,58.61,0,0,1-9.06.4,56.82,56.82,0,0,1-9-1,38.58,38.58,0,0,1-4.21-1,6.28,6.28,0,0,1-3.4-2.45,12.17,12.17,0,0,1-1.45-3.71c-.3-1.24-.58-2.44-.86-3.6-.55-2.32-1.05-4.48-1.52-6.47a31.94,31.94,0,0,1-1-5.4,6.78,6.78,0,0,1,.9-4,4.34,4.34,0,0,1,1.93-1.77A2.34,2.34,0,0,1,237,240a7.46,7.46,0,0,0-.85.32,4.47,4.47,0,0,0-1.8,1.78,6.68,6.68,0,0,0-.78,3.92,33,33,0,0,0,1.06,5.34q.72,3,1.58,6.45c.28,1.15.58,2.35.88,3.58a11.62,11.62,0,0,0,1.41,3.56,5.73,5.73,0,0,0,3.16,2.25,37.55,37.55,0,0,0,4.15,1,57,57,0,0,0,8.93,1,57.59,57.59,0,0,0,9-.39c1.44-.17,2.85-.41,4.22-.67a7,7,0,0,0,3.62-1.51,11.3,11.3,0,0,0,1.88-3.31,29.28,29.28,0,0,0,1.06-3.51l1.73-6.4c1-3.92,1.59-7.18,1.4-9.43a7.06,7.06,0,0,0-.61-2.49A6.87,6.87,0,0,1,276.53,240.68Z" style="fill: rgb(255, 255, 255); transform-origin: 255.536px 254.866px;" id="elp2tctno6mh" class="animable"></path><path d="M239.08,266a25.76,25.76,0,0,1-4.34,3,25.83,25.83,0,0,1-4.61,2.57,26.46,26.46,0,0,1,4.34-3A27.46,27.46,0,0,1,239.08,266Z" style="fill: rgb(255, 255, 255); transform-origin: 234.605px 268.785px;" id="elbmuvokgfgg" class="animable"></path><path d="M280.09,271.29a40,40,0,0,1-4-2.39,38.14,38.14,0,0,1-4-2.45,14.88,14.88,0,0,1,4.23,2A14.43,14.43,0,0,1,280.09,271.29Z" style="fill: rgb(255, 255, 255); transform-origin: 276.09px 268.87px;" id="elsh818bbnwm" class="animable"></path><path d="M247.45,246.14a14.24,14.24,0,0,1,4.12-9.19c.12.09-1.29,1.88-2.42,4.43S247.6,246.17,247.45,246.14Z" style="fill: rgb(255, 255, 255); transform-origin: 249.514px 241.545px;" id="elora3uaxnv8" class="animable"></path><path d="M263.27,245.53a40.38,40.38,0,0,0-.64-4.22,38.3,38.3,0,0,0-1.58-3.95,7.54,7.54,0,0,1,2.09,3.82A7.65,7.65,0,0,1,263.27,245.53Z" style="fill: rgb(255, 255, 255); transform-origin: 262.287px 241.445px;" id="elwbzt62l6aca" class="animable"></path><path d="M276.38,240.68c0,.1-.62.09-1.68-.11a36.73,36.73,0,0,1-4.33-1.24,29.57,29.57,0,0,0-6.3-1.51,14.36,14.36,0,0,0-3.7.05,42.72,42.72,0,0,1-4.18.89,12.86,12.86,0,0,1-4.35-.82,11.7,11.7,0,0,0-3.66-.29,27.78,27.78,0,0,0-6.33,1.31,33.09,33.09,0,0,1-4.38,1.08c-1.07.15-1.67.12-1.68,0s.54-.29,1.54-.62,2.4-.85,4.17-1.53a25,25,0,0,1,6.57-1.7,12.78,12.78,0,0,1,4.14.25,12.62,12.62,0,0,0,3.88.74c1.26-.07,2.58-.63,4.05-.84a14.84,14.84,0,0,1,4.11,0,26.08,26.08,0,0,1,6.5,1.9c1.75.74,3.14,1.32,4.12,1.7S276.4,240.57,276.38,240.68Z" style="fill: rgb(38, 50, 56); transform-origin: 256.085px 238.432px;" id="el486yq3e0k4x" class="animable"></path><path d="M310.14,106.78s-.08.17-.29.47l-.9,1.29-3.41,4.68-11.39,15.31-7.65,10.13,0-.15c.36,4.2.66,7.74.88,10.31.09,1.19.16,2.16.21,2.9a4.83,4.83,0,0,1,0,1,6.09,6.09,0,0,1-.16-1c-.09-.74-.2-1.71-.34-2.9-.27-2.56-.63-6.1-1.06-10.29v-.09l.05-.07,7.6-10.18L305.25,113l3.54-4.57c.39-.5.72-.91,1-1.23A2.5,2.5,0,0,1,310.14,106.78Z" style="fill: rgb(255, 255, 255); transform-origin: 298.085px 129.75px;" id="elturw2dk8m79" class="animable"></path><path d="M201.32,106.08s.14.13.37.41l1,1.23,3.53,4.58,11.52,15.21,7.6,10.18.06.07v.09c-.44,4.19-.8,7.73-1.07,10.29-.14,1.2-.25,2.16-.33,2.9a6.62,6.62,0,0,1-.17,1,4.83,4.83,0,0,1,0-1c.06-.73.13-1.7.21-2.9.22-2.57.52-6.11.88-10.31l.05.16-7.65-10.14-11.4-15.31-3.41-4.68-.9-1.29A3,3,0,0,1,201.32,106.08Z" style="fill: rgb(255, 255, 255); transform-origin: 213.36px 129.06px;" id="elhocjiftndb8" class="animable"></path><path d="M293.85,189.06a8.43,8.43,0,1,1,8.42-8.43A8.44,8.44,0,0,1,293.85,189.06Zm0-15.85a7.43,7.43,0,1,0,7.42,7.42A7.43,7.43,0,0,0,293.85,173.21Z" style="fill: rgb(38, 50, 56); transform-origin: 293.84px 180.63px;" id="elsrmxp6g4bk8" class="animable"></path><path d="M288,180.21a6.06,6.06,0,0,0,6.1,5.84,5.79,5.79,0,0,0,6-5.73,6.06,6.06,0,0,0-6.1-5.84A5.79,5.79,0,0,0,288,180.21Z" style="fill: rgb(173, 217, 13); transform-origin: 294.05px 180.265px;" id="elzvehc98q8fl" class="animable"></path><g id="elwkgz00otqwt"><g style="opacity: 0.3; transform-origin: 289.4px 168.517px;" class="animable"><path d="M276.57,184.66c-3.49-2.51-7-5.15-9.37-8.77S264,167.43,266,163.65c1.71-3.14,5.09-5,8.39-6.35a64.24,64.24,0,0,1,29.67-4.73c2.67.21,5.5.66,7.46,2.48,2.81,2.6,2.84,7.1,1.7,10.76s-3.23,7-4,10.76c-3.94-5.7-12.31-6.91-18.76-4.38s-9.79,6.89-13.89,12.47" id="elkssz9awocli" class="animable" style="transform-origin: 289.4px 168.517px;"></path></g></g><path d="M310.69,176.62c-.28.3-2.07-1.27-5.44-2.67a22,22,0,0,0-6.12-1.58,19.53,19.53,0,0,0-14.4,4,22.34,22.34,0,0,0-4.44,4.51c-2.17,2.93-2.89,5.2-3.29,5.08s-.21-2.58,1.75-6.09A19.95,19.95,0,0,1,299.46,170a19.94,19.94,0,0,1,6.6,2.3C309.54,174.29,310.91,176.43,310.69,176.62Z" style="fill: rgb(38, 50, 56); transform-origin: 293.77px 177.842px;" id="elpyy1lhbfw" class="animable"></path><path d="M311.54,155.05c-.26.34-2.57-1.31-7-2a48.89,48.89,0,0,0-17.34.61,68.48,68.48,0,0,0-9.31,2.56,29.82,29.82,0,0,0-6.91,3.51c-1.84,1.26-3.27,2.45-4.32,3.2s-1.68,1.12-1.8,1,.28-.74,1.11-1.73a33.91,33.91,0,0,1,3.89-3.92A26.28,26.28,0,0,1,277,154a54.2,54.2,0,0,1,9.66-2.88c7.06-1.44,13.69-1.15,18.28.14a16.35,16.35,0,0,1,5.13,2.31C311.18,154.32,311.63,154.93,311.54,155.05Z" style="fill: rgb(38, 50, 56); transform-origin: 288.195px 157.056px;" id="elm87bmdr41" class="animable"></path><path d="M169.93,167.62a3.64,3.64,0,0,1,.5.87c.29.57.66,1.43,1.07,2.5a36.48,36.48,0,0,1,2,17.69,25.2,25.2,0,0,1-.5,2.67,3.56,3.56,0,0,1-.29,1c-.09,0,.2-1.41.42-3.67a41.8,41.8,0,0,0-1.95-17.53C170.43,169,169.85,167.66,169.93,167.62Z" style="fill: rgb(38, 50, 56); transform-origin: 171.875px 179.985px;" id="elism7ra61i8m" class="animable"></path><path d="M176.31,178.45c0,.15-.62.18-1.34.22s-1.31.07-1.35-.08.55-.4,1.33-.44S176.33,178.31,176.31,178.45Z" style="fill: rgb(38, 50, 56); transform-origin: 174.964px 178.424px;" id="eltax7rph6d7j" class="animable"></path><path d="M221.41,190.52c-.33,0-.65,0-1-.05a8.38,8.38,0,1,1,9.27-7.37,8.38,8.38,0,0,1-8.3,7.42Zm0-15.75a7.37,7.37,0,0,0-5.77,12A7.39,7.39,0,0,0,226,187.92a7.37,7.37,0,0,0,2.74-4.94h0a7.39,7.39,0,0,0-6.49-8.17A8.19,8.19,0,0,0,221.38,174.77Z" style="fill: rgb(38, 50, 56); transform-origin: 221.355px 182.142px;" id="elcl5ascwglm" class="animable"></path><path d="M227.42,181.88a6,6,0,0,1-5.89,6,5.78,5.78,0,0,1-6.18-5.51,6.06,6.06,0,0,1,5.89-6A5.79,5.79,0,0,1,227.42,181.88Z" style="fill: rgb(173, 217, 13); transform-origin: 221.385px 182.125px;" id="ela47044dgup9" class="animable"></path><path d="M245.52,163.48c-.35.25-2-2-6-4.1a49,49,0,0,0-16.66-4.86,67,67,0,0,0-9.65-.49,30.13,30.13,0,0,0-7.66,1.16c-2.14.63-3.87,1.3-5.1,1.69s-1.95.54-2,.37.5-.61,1.6-1.29a34.54,34.54,0,0,1,4.93-2.51,26.73,26.73,0,0,1,8.13-1.82,55.72,55.72,0,0,1,10.07.3c7.16.85,13.37,3.21,17.32,5.87a16.29,16.29,0,0,1,4.15,3.8C245.41,162.68,245.65,163.4,245.52,163.48Z" style="fill: rgb(38, 50, 56); transform-origin: 222px 157.513px;" id="elffnoplytbvp" class="animable"></path><g id="el6mp546kt15a"><g style="opacity: 0.3; transform-origin: 221.386px 168.52px;" class="animable"><path d="M203,180.64c-2.53-3.49-5.07-7.1-6.15-11.27s-.43-9.06,2.72-12c2.61-2.44,6.39-3.12,10-3.39a64.38,64.38,0,0,1,29.67,4.81c2.46,1,5,2.36,6.3,4.69,1.86,3.36.47,7.64-1.76,10.76s-5.27,5.64-7.2,9c-1.95-6.65-9.51-10.42-16.43-10s-11.46,3.46-17.1,7.48" id="elngj1ume3u6" class="animable" style="transform-origin: 221.386px 168.52px;"></path></g></g><path d="M203.92,182.67c-.15-.07-.07-.72.37-1.82a12.73,12.73,0,0,1,2.9-4.1,17.2,17.2,0,0,1,6.42-3.85,19.1,19.1,0,0,1,4.34-1,18.07,18.07,0,0,1,4.81.06,18.82,18.82,0,0,1,13.53,9,15.88,15.88,0,0,1,1.88,4.6c.25,1.14.22,1.8.06,1.84-.41.13-1.14-2.31-3.47-5.42a20.78,20.78,0,0,0-4.86-4.6,18.43,18.43,0,0,0-7.52-2.87,16.76,16.76,0,0,0-4.18-.1,18.85,18.85,0,0,0-3.86.72,18,18,0,0,0-5.94,3C205.35,180.49,204.32,182.86,203.92,182.67Z" style="fill: rgb(38, 50, 56); transform-origin: 221.102px 179.586px;" id="el7nyxxz15bhg" class="animable"></path><rect x="252.66" y="105.86" width="4.07" height="13.73" style="fill: rgb(173, 217, 13); transform-origin: 254.695px 112.725px;" id="elmttwxku54sp" class="animable"></rect><rect x="254.26" y="273.29" width="4.07" height="3.51" style="fill: rgb(173, 217, 13); transform-origin: 256.295px 275.045px;" id="el5r024kvk4hv" class="animable"></rect><rect x="254.03" y="251.82" width="4.07" height="10.29" style="fill: rgb(173, 217, 13); transform-origin: 256.065px 256.965px;" id="eldqh0yvmt98r" class="animable"></rect><path d="M297.47,180.27a3.63,3.63,0,1,1-3.62-3.63A3.62,3.62,0,0,1,297.47,180.27Z" style="fill: rgb(255, 255, 255); transform-origin: 293.84px 180.27px;" id="elywvnydk27xo" class="animable"></path><path d="M318.65,180.63a2.38,2.38,0,0,1,0-.4c0-.29-.05-.69-.09-1.19,0-.26,0-.56-.06-.87s-.1-.67-.16-1a18.26,18.26,0,0,0-.53-2.58,23.77,23.77,0,0,0-2.78-6.63,24.85,24.85,0,0,0-29.84-10.58,27.08,27.08,0,0,0-3.23,1.42,25.77,25.77,0,0,0-3,2,28.76,28.76,0,0,0-2.82,2.39,27.93,27.93,0,0,0-2.42,2.88,23.86,23.86,0,0,0-3.55,6.83,24.53,24.53,0,0,0,0,15.64,24.14,24.14,0,0,0,3.54,6.84,29.22,29.22,0,0,0,2.43,2.87,28.87,28.87,0,0,0,2.82,2.4,25.69,25.69,0,0,0,3,1.95,24.2,24.2,0,0,0,3.23,1.42A24.89,24.89,0,0,0,315,193.35a23.77,23.77,0,0,0,2.78-6.63,18,18,0,0,0,.53-2.58c.06-.37.13-.72.16-1s0-.61.06-.87c0-.51.07-.9.09-1.19a2.64,2.64,0,0,1,0-.41,2.56,2.56,0,0,1,0,.41c0,.29,0,.69,0,1.19,0,.27,0,.56,0,.88s-.09.68-.14,1.06a16.52,16.52,0,0,1-.48,2.6,23.76,23.76,0,0,1-2.73,6.73,25.24,25.24,0,0,1-17,11.95A25.32,25.32,0,0,1,285,204.39a26,26,0,0,1-3.3-1.45,24.42,24.42,0,0,1-3.11-2,27.34,27.34,0,0,1-2.87-2.43,28.09,28.09,0,0,1-2.49-2.93,24.57,24.57,0,0,1-3.62-7,25,25,0,0,1,0-16,24.83,24.83,0,0,1,3.62-7,29.17,29.17,0,0,1,2.49-2.93,28.6,28.6,0,0,1,2.87-2.43,27.73,27.73,0,0,1,3.11-2,26,26,0,0,1,3.3-1.44,25.32,25.32,0,0,1,13.28-1.07,25.21,25.21,0,0,1,17,12,23.72,23.72,0,0,1,2.73,6.72,16.62,16.62,0,0,1,.48,2.61c.05.38.12.73.14,1.05s0,.62,0,.88c0,.51,0,.9,0,1.2A2.38,2.38,0,0,1,318.65,180.63Z" style="fill: rgb(173, 217, 13); transform-origin: 293.474px 180.594px;" id="el8mzdate4p" class="animable"></path><path d="M316.11,180.63a1.14,1.14,0,0,1,0-.27c0-.21,0-.47-.07-.8s-.06-.8-.09-1.3-.19-1.1-.3-1.75-.34-1.37-.53-2.16-.57-1.59-.9-2.48a25.11,25.11,0,0,0-3.36-5.45,23.16,23.16,0,0,0-5.92-5,22.39,22.39,0,0,0-18.09-2,22.23,22.23,0,0,0-14.39,14.38,22.41,22.41,0,0,0,2,18.1,23.16,23.16,0,0,0,5,5.92,25.16,25.16,0,0,0,5.46,3.36c.88.33,1.69.68,2.48.9s1.49.44,2.15.53l1.75.3,1.3.09.8.07.27,0a1.1,1.1,0,0,1-.27,0h-.81c-.35,0-.79,0-1.3,0l-1.78-.25c-.67-.08-1.38-.31-2.18-.49s-1.63-.55-2.53-.87a25.08,25.08,0,0,1-5.57-3.35,23,23,0,0,1-5.12-6,22.57,22.57,0,0,1-3-8.53,23,23,0,0,1,.86-9.94A22.72,22.72,0,0,1,286.65,159a23,23,0,0,1,9.94-.86,22.57,22.57,0,0,1,8.53,3,23,23,0,0,1,6,5.12,25.08,25.08,0,0,1,3.35,5.57c.32.9.66,1.73.87,2.53s.41,1.51.49,2.18.18,1.25.25,1.77,0,1,.05,1.31,0,.6,0,.81A1.1,1.1,0,0,1,316.11,180.63Z" style="fill: rgb(173, 217, 13); transform-origin: 293.531px 180.509px;" id="el0e4stclci8rw" class="animable"></path><rect x="297.31" y="190.65" width="2.07" height="2.32" style="fill: rgb(173, 217, 13); transform-origin: 298.345px 191.81px;" id="el39kt3k3ufu9" class="animable"></rect><rect x="294.17" y="190.65" width="2.07" height="2.32" style="fill: rgb(173, 217, 13); transform-origin: 295.205px 191.81px;" id="el64z9gl4b5bc" class="animable"></rect><rect x="300.11" y="190.65" width="12.38" height="2.32" style="fill: rgb(173, 217, 13); transform-origin: 306.3px 191.81px;" id="elkej6mflqo1g" class="animable"></rect><rect x="304.32" y="194.87" width="12.38" height="2.32" style="fill: rgb(173, 217, 13); transform-origin: 310.51px 196.03px;" id="elc0f79rm79kf" class="animable"></rect><rect x="300.41" y="194.87" width="3.27" height="2.32" style="fill: rgb(173, 217, 13); transform-origin: 302.045px 196.03px;" id="eluprwke1qqe" class="animable"></rect><polygon points="147.06 384.58 194.28 480.06 316.47 480.06 365.55 366.35 147.06 384.58" style="fill: rgb(38, 50, 56); transform-origin: 256.305px 423.205px;" id="ela8sm1801q69" class="animable"></polygon><path d="M399,349.37s-37.63-32-87.41-32.43c0,0,22.13,12.77,13.81,27.57S281.67,380.78,281,381.39s-15.56,10.74-25.38,12.77v71.95s19.61,2.44,35.19-7.49,43.32-13.19,43.32-13.19,44.86-54.54,53.22-69.12C397.91,358,399,349.37,399,349.37Z" style="fill: rgb(224, 224, 224); transform-origin: 327.31px 391.657px;" id="elz644spvwy18" class="animable"></path><path d="M109.34,349.37s37.63-32,87.41-32.43c0,0-22.12,12.77-13.8,27.57s43.74,36.27,44.38,36.88,15.57,10.74,25.38,12.77v71.95s-19.61,2.44-35.18-7.49-43.33-13.19-43.33-13.19S129.34,390.89,121,376.31C110.45,358,109.34,349.37,109.34,349.37Z" style="fill: rgb(224, 224, 224); transform-origin: 181.025px 391.657px;" id="el2ehrrampb93" class="animable"></path><path d="M244.91,465.38a6.93,6.93,0,0,1,0-.79c0-.57,0-1.32-.05-2.26,0-2,0-4.85-.08-8.34,0-7.08,0-16.8-.08-27.58l.09.2-.57-.52-14.35-13-.08-.08v-.1c.4-6,.72-11.1,1-14.71.13-1.73.23-3.12.3-4.12,0-.44.08-.8.1-1.09a1.93,1.93,0,0,1,.06-.37,1.38,1.38,0,0,1,0,.38c0,.28,0,.64,0,1.09,0,1-.1,2.39-.18,4.13-.18,3.61-.45,8.67-.76,14.71l-.08-.18c4.21,3.8,9.15,8.25,14.4,13l.57.51.09.08v.11c0,10.78-.06,20.5-.08,27.58,0,3.49-.07,6.32-.08,8.34,0,.94,0,1.69-.05,2.26A4,4,0,0,1,244.91,465.38Z" style="fill: rgb(38, 50, 56); transform-origin: 237.54px 429px;" id="el0dzsfs2shht5" class="animable"></path><path d="M266.86,465.38a3.71,3.71,0,0,1-.05-.79c0-.57,0-1.32-.05-2.26,0-2-.05-4.85-.08-8.34,0-7.08-.05-16.8-.08-27.58v-.11l.08-.08.57-.51c5.25-4.75,10.19-9.2,14.4-13l-.07.18c-.32-6-.58-11.1-.77-14.71-.08-1.74-.14-3.13-.18-4.13,0-.45,0-.81,0-1.09a2.21,2.21,0,0,1,0-.38s0,.13.06.37.06.65.1,1.09c.07,1,.18,2.39.3,4.12.24,3.61.57,8.67,1,14.71v.1l-.08.08-14.36,13-.57.52.09-.2c0,10.78-.06,20.5-.08,27.58,0,3.49-.06,6.32-.08,8.34,0,.94,0,1.69,0,2.26A4.83,4.83,0,0,1,266.86,465.38Z" style="fill: rgb(38, 50, 56); transform-origin: 274.345px 428.98px;" id="elematzznwy25" class="animable"></path><path d="M377.06,334.94a1.31,1.31,0,0,1-.17.27l-.56.77c-.53.69-1.26,1.67-2.2,2.91-1.94,2.54-4.72,6.18-8.15,10.65-6.93,9-16.49,21.36-27,35l-4.58,5.91.05-.16c0,15.53-.06,29.29-.08,39.22,0,4.92-.06,8.88-.08,11.66,0,1.34,0,2.39-.05,3.14l0,.82a.94.94,0,0,1,0,.27s0-.09,0-.27,0-.48,0-.82c0-.75,0-1.8-.05-3.14,0-2.78-.05-6.74-.08-11.66,0-9.93-.05-23.69-.08-39.22v-.09l0-.07c1.46-1.89,3-3.88,4.57-5.91l27.16-34.93L374,338.76l2.27-2.85.61-.73A1.2,1.2,0,0,1,377.06,334.94Z" style="fill: rgb(38, 50, 56); transform-origin: 355.545px 390.17px;" id="elczaiwdnd7mt" class="animable"></path><rect x="271.11" y="432.22" width="3.22" height="23.92" style="fill: rgb(173, 217, 13); transform-origin: 272.72px 444.18px;" id="elflo39vocm1" class="animable"></rect><rect x="221.64" y="402.08" width="4.26" height="9.38" style="fill: rgb(173, 217, 13); transform-origin: 223.77px 406.77px;" id="eljtxjbnp8dn" class="animable"></rect><path d="M358.08,327s-.13.15-.41.39l-1.24,1-4.61,3.6-.08.07-.1,0-12.71-3.66c-5.63-1.65-10.72-3.17-14.39-4.29l-4.35-1.36a9.1,9.1,0,0,1-1.57-.57,11.11,11.11,0,0,1,1.63.37l4.39,1.2c3.7,1,8.81,2.5,14.44,4.15l12.68,3.77-.18,0,4.71-3.46,1.31-.93A2.73,2.73,0,0,1,358.08,327Z" style="fill: rgb(38, 50, 56); transform-origin: 338.35px 327.12px;" id="elo216k80rci9" class="animable"></path><polygon points="341.01 390.19 343.51 392.02 363.43 365.85 361.01 363.72 341.01 390.19" style="fill: rgb(255, 255, 255); transform-origin: 352.22px 377.87px;" id="elxilc9mk3jh" class="animable"></polygon><path d="M367.88,360.73a1.77,1.77,0,1,1-1.76-1.67A1.72,1.72,0,0,1,367.88,360.73Z" style="fill: rgb(255, 255, 255); transform-origin: 366.113px 360.83px;" id="elkn85d31okt" class="animable"></path><path d="M132.76,335.22s.08.08.22.24l.6.73,2.27,2.86,8.28,10.55c7,9,16.57,21.3,27.16,34.93l4.58,5.91,0,.07v.09c0,15.53-.06,29.29-.09,39.22,0,4.92-.06,8.88-.07,11.66,0,1.34,0,2.39,0,3.14l0,.82a1.07,1.07,0,0,1,0,.28.9.9,0,0,1,0-.28c0-.21,0-.48,0-.82,0-.75,0-1.8,0-3.14,0-2.78,0-6.74-.08-11.66,0-9.93-.05-23.69-.09-39.22l.06.16-4.58-5.91-27-35-8.15-10.65-2.19-2.91-.56-.77Q132.75,335.24,132.76,335.22Z" style="fill: rgb(38, 50, 56); transform-origin: 154.315px 390.47px;" id="el9rjahtsu3d7" class="animable"></path><path d="M151.74,327.28a2.56,2.56,0,0,1,.49.29c.35.26.79.56,1.31.93l4.71,3.46-.18,0,12.68-3.77c5.63-1.65,10.73-3.11,14.44-4.15l4.39-1.2a11.11,11.11,0,0,1,1.63-.37,9,9,0,0,1-1.58.57l-4.34,1.36c-3.68,1.12-8.77,2.64-14.4,4.29l-12.71,3.66-.1,0-.08-.07-4.6-3.6c-.5-.4-.91-.73-1.24-1S151.73,327.3,151.74,327.28Z" style="fill: rgb(38, 50, 56); transform-origin: 171.475px 327.41px;" id="elghs8h8ercqf" class="animable"></path><polygon points="168.82 390.47 166.32 392.3 146.4 366.13 148.81 364 168.82 390.47" style="fill: rgb(255, 255, 255); transform-origin: 157.61px 378.15px;" id="el1gxfm2e1tk4" class="animable"></polygon><ellipse cx="143.71" cy="361.01" rx="1.76" ry="1.68" style="fill: rgb(255, 255, 255); transform-origin: 143.71px 361.01px;" id="elctf6i1skh4e" class="animable"></ellipse><path d="M234.41,343.49s13.2,8.36,22.89,8,22.16-8.88,22.16-8.88l-9.4,31.83-25.7-.68Z" style="fill: rgb(69, 90, 100); transform-origin: 256.935px 358.525px;" id="elm1i5uk8xm4" class="animable"></path><path d="M229.84,376.93s-6.25,12.22,2.62,15.17a10,10,0,0,0,12.69-7.32c.92-3.68,1.63-7.72.93-9.48-1.45-3.62-12.7-44.53-13.75-51.32-.28-1.74-2.77-11.35-3.07-12.72-1.43-6.41-11.14-4.62-11.15,1.95,0,1.94.22,8.75.37,10,2.07,16.9,4.59,25.74,6.7,34.58,2.68,11.2,4.66,19.15,4.66,19.15" style="fill: rgb(69, 90, 100); transform-origin: 232.236px 349.905px;" id="eljtvf59rov3" class="animable"></path><path d="M229.84,376.93s-.05-.16-.14-.48-.21-.8-.37-1.4c-.32-1.26-.78-3.08-1.36-5.4-1.17-4.73-2.86-11.52-4.93-19.91-1-4.21-2-8.84-2.91-13.86q-.67-3.76-1.24-7.8a67.28,67.28,0,0,1-.84-8.34c-.05-1.43-.1-2.88-.15-4.34,0-.74,0-1.47,0-2.22L218,312c.09-.38.21-.75.32-1.13a6.48,6.48,0,0,1,7.94-3.54,5.13,5.13,0,0,1,3.17,3.54c.42,1.54.78,3.08,1.18,4.64.76,3.13,1.63,6.28,2.21,9.54,1.37,6.44,3.06,12.68,4.63,18.7s3.17,11.82,4.7,17.33l2.28,8q.59,2,1.14,3.84c.19.63.38,1.25.6,1.85a8.15,8.15,0,0,1,.29,1,4.78,4.78,0,0,1,.12,1,29.81,29.81,0,0,1-1,7.33,10.89,10.89,0,0,1-3.3,5.93,11.05,11.05,0,0,1-2.67,1.79,11.32,11.32,0,0,1-2.93.84,9.55,9.55,0,0,1-5.44-1,6.21,6.21,0,0,1-3.13-3.59,9.7,9.7,0,0,1-.4-4,20,20,0,0,1,1.37-5.41c.24-.59.44-1,.59-1.33a4.49,4.49,0,0,1,.23-.43l-.18.45c-.13.3-.32.75-.54,1.35a21.14,21.14,0,0,0-1.27,5.38,9.59,9.59,0,0,0,.43,3.93,5.93,5.93,0,0,0,3,3.41,9.28,9.28,0,0,0,5.26.89,10.45,10.45,0,0,0,2.82-.83,10.79,10.79,0,0,0,2.57-1.74,10.6,10.6,0,0,0,3.16-5.75,29.46,29.46,0,0,0,1-7.22,5.15,5.15,0,0,0-.39-1.8c-.23-.62-.42-1.25-.61-1.88L244,369.28c-.74-2.6-1.51-5.29-2.3-8-1.55-5.51-3.13-11.31-4.73-17.33s-3.27-12.25-4.65-18.73c-.57-3.24-1.45-6.39-2.2-9.51-.4-1.55-.77-3.12-1.18-4.63a4.57,4.57,0,0,0-2.85-3.2,6,6,0,0,0-7.3,3.25,10.78,10.78,0,0,0-.37,4.29c.05,1.47.09,2.91.14,4.34a65,65,0,0,0,.82,8.29q.56,4,1.2,7.79c.85,5,1.85,9.65,2.84,13.86l4.77,19.94c.55,2.34,1,4.16,1.27,5.42.14.61.25,1.08.32,1.42S229.84,376.93,229.84,376.93Z" style="fill: rgb(38, 50, 56); transform-origin: 232.24px 349.865px;" id="eln24cy8bsycd" class="animable"></path><path d="M227.86,314.37a3.66,3.66,0,1,1-3.66-3.65A3.65,3.65,0,0,1,227.86,314.37Z" style="fill: rgb(38, 50, 56); transform-origin: 224.2px 314.38px;" id="elcmbxloq036a" class="animable"></path><circle cx="235.88" cy="384.58" r="3.65" style="fill: rgb(38, 50, 56); transform-origin: 235.88px 384.58px;" id="elbebbpa6nmw" class="animable"></circle><path d="M242.93,381.07a35.17,35.17,0,0,1-5.88-1.49,35.31,35.31,0,0,1-5.74-2,36.64,36.64,0,0,1,5.89,1.49A35.4,35.4,0,0,1,242.93,381.07Z" style="fill: rgb(38, 50, 56); transform-origin: 237.12px 379.325px;" id="elhz6pwk32ikl" class="animable"></path><circle cx="231.52" cy="350.55" r="1.79" style="fill: rgb(38, 50, 56); transform-origin: 231.52px 350.55px;" id="eljz23e5u8nqd" class="animable"></circle><path d="M239,370.89a1.79,1.79,0,1,1-1.79-1.8A1.79,1.79,0,0,1,239,370.89Z" style="fill: rgb(38, 50, 56); transform-origin: 237.21px 370.88px;" id="elelo4bpja93" class="animable"></path><path d="M284.26,379.05s6.77,11.94-2,15.27c-5.39,2.05-11.35-1.24-13-6.77-1.07-3.64-2-7.64-1.33-9.44,1.3-3.68,10.8-45,11.56-51.85.2-1.76,2.28-11.46,2.53-12.84,1.16-6.46,10.93-5.09,11.22,1.47.08,1.94.15,8.75.05,10-1.35,17-3.49,25.91-5.22,34.83-2.2,11.31-3.85,19.33-3.85,19.33" style="fill: rgb(69, 90, 100); transform-origin: 280.522px 352.075px;" id="elnog9uu2qb9p" class="animable"></path><path d="M284.26,379.05s0-.17.07-.49l.26-1.43,1-5.47,3.92-20.13c.81-4.25,1.61-8.92,2.25-14,.33-2.52.62-5.14.87-7.83a64.73,64.73,0,0,0,.47-8.32c0-1.43,0-2.88-.05-4.34a10.86,10.86,0,0,0-.55-4.28,6,6,0,0,0-7.43-2.94,4.64,4.64,0,0,0-2.72,3.32c-.34,1.53-.64,3.11-1,4.68-.62,3.15-1.36,6.33-1.8,9.59-1.1,6.54-2.53,12.83-3.85,18.92s-2.68,11.94-4,17.51c-.67,2.78-1.32,5.5-2,8.13-.33,1.32-.66,2.61-1,3.89-.17.64-.33,1.27-.53,1.89a5.31,5.31,0,0,0-.32,1.83,29.35,29.35,0,0,0,1.31,7.16,10.6,10.6,0,0,0,3.4,5.62,10.89,10.89,0,0,0,2.64,1.63,10.49,10.49,0,0,0,2.86.7,9.19,9.19,0,0,0,5.21-1.1,6,6,0,0,0,2.9-3.54,9.79,9.79,0,0,0,.26-3.94,21.11,21.11,0,0,0-1.5-5.33c-.25-.59-.45-1-.59-1.32l-.21-.45s.1.14.26.42.37.72.64,1.31a20.48,20.48,0,0,1,1.6,5.34,9.74,9.74,0,0,1-.23,4,6.21,6.21,0,0,1-3,3.72,9.53,9.53,0,0,1-5.39,1.18,10.83,10.83,0,0,1-3-.71,10.67,10.67,0,0,1-6.3-7.46,29.55,29.55,0,0,1-1.35-7.28,5.66,5.66,0,0,1,.08-1,8.39,8.39,0,0,1,.25-1c.19-.61.35-1.24.52-1.87.32-1.28.65-2.57,1-3.89.62-2.63,1.27-5.35,1.93-8.13,1.3-5.57,2.63-11.43,4-17.51s2.74-12.39,3.84-18.88c.43-3.29,1.18-6.47,1.8-9.63.34-1.57.63-3.13,1-4.69a5.18,5.18,0,0,1,3-3.67A6.47,6.47,0,0,1,293,312.6c.13.37.26.73.37,1.1l.16,1.15c0,.75,0,1.48.06,2.22,0,1.46,0,2.91,0,4.35a67,67,0,0,1-.49,8.36c-.27,2.7-.56,5.32-.9,7.84-.66,5.06-1.49,9.73-2.32,14l-4.08,20.1c-.49,2.35-.87,4.18-1.14,5.45-.13.61-.23,1.08-.31,1.42S284.26,379.05,284.26,379.05Z" style="fill: rgb(38, 50, 56); transform-origin: 280.475px 351.916px;" id="el7lbt4kfnlzt" class="animable"></path><path d="M283.59,316.46a3.65,3.65,0,1,0,3.49-3.8A3.66,3.66,0,0,0,283.59,316.46Z" style="fill: rgb(38, 50, 56); transform-origin: 287.237px 316.307px;" id="elb16n53bv16" class="animable"></path><path d="M274.91,387.11a3.65,3.65,0,1,0,3.49-3.81A3.65,3.65,0,0,0,274.91,387.11Z" style="fill: rgb(38, 50, 56); transform-origin: 278.556px 386.947px;" id="elc17va7yv2e8" class="animable"></path><path d="M271.36,383.75a34.72,34.72,0,0,1,5.65-2.23,34.5,34.5,0,0,1,5.81-1.74,36.61,36.61,0,0,1-5.64,2.23A37.18,37.18,0,0,1,271.36,383.75Z" style="fill: rgb(38, 50, 56); transform-origin: 277.09px 381.765px;" id="el9i6hudrjanh" class="animable"></path><circle cx="283.56" cy="352.02" r="1.79" style="fill: rgb(38, 50, 56); transform-origin: 283.56px 352.02px;" id="el0n3vsicp3vy" class="animable"></circle><path d="M279.57,372.68a1.8,1.8,0,1,1-1.8-1.79A1.8,1.8,0,0,1,279.57,372.68Z" style="fill: rgb(38, 50, 56); transform-origin: 277.77px 372.69px;" id="elucvo08am2e" class="animable"></path></g><g id="freepik--Lines--inject-185" class="animable" style="transform-origin: 193.86px 71.8395px;"><path d="M239.45,43.27a10.78,10.78,0,0,0-1.7-1.82A12.72,12.72,0,0,0,231.13,39c-6.21-.78-15.32.91-25.7,4.94a142.89,142.89,0,0,0-34,19.31A107.09,107.09,0,0,0,154.59,79a49,49,0,0,0-6.75,10.12A20.22,20.22,0,0,0,146,95a11.42,11.42,0,0,0,0,3.09,7.3,7.3,0,0,0,3.17,5.08,11.29,11.29,0,0,0,2.77,1.35,20.35,20.35,0,0,0,6.1.9,48.84,48.84,0,0,0,12.06-1.62,106.86,106.86,0,0,0,21.57-8.23,143.05,143.05,0,0,0,32.28-22c8.18-7.55,13.7-15,15.72-20.91a12.74,12.74,0,0,0,.71-7,11,11,0,0,0-.89-2.33l.32.55a3.67,3.67,0,0,1,.33.71,5.52,5.52,0,0,1,.34,1,12.7,12.7,0,0,1-.62,7.12c-2,6-7.49,13.5-15.66,21.11A142.48,142.48,0,0,1,191.85,96a107.94,107.94,0,0,1-21.66,8.3A49.29,49.29,0,0,1,158,105.94a21,21,0,0,1-6.26-.93,12,12,0,0,1-2.91-1.41,9,9,0,0,1-2.27-2.36,8.79,8.79,0,0,1-1.11-3.07,12.12,12.12,0,0,1,0-3.24,20.88,20.88,0,0,1,1.93-6,48.77,48.77,0,0,1,6.82-10.23,107.52,107.52,0,0,1,17-15.81A141.82,141.82,0,0,1,205.3,43.6c10.43-4,19.59-5.65,25.85-4.8a12.6,12.6,0,0,1,6.66,2.57,5.81,5.81,0,0,1,.79.75,3.74,3.74,0,0,1,.49.62C239.34,43.09,239.45,43.27,239.45,43.27Z" style="fill: rgb(173, 217, 13); transform-origin: 193.035px 72.2613px;" id="elbu27hp8hrsn" class="animable"></path><path d="M251.14,36.06a14.11,14.11,0,0,0-2.09-2.28,12.34,12.34,0,0,0-3.21-1.91,20,20,0,0,0-5-1.29c-7.69-1.12-19,.84-31.94,5.77A156,156,0,0,0,188.48,46a179.86,179.86,0,0,0-21.7,14.25A129.51,129.51,0,0,0,146,79.9a59.3,59.3,0,0,0-8.23,12.67,24.4,24.4,0,0,0-2.19,7.34,14.11,14.11,0,0,0,.05,3.84,10.87,10.87,0,0,0,1.33,3.59,11.29,11.29,0,0,0,2.64,2.79,14.35,14.35,0,0,0,3.43,1.73,24.61,24.61,0,0,0,7.56,1.26,59.35,59.35,0,0,0,15-1.82,130.46,130.46,0,0,0,26.82-10.07A179.68,179.68,0,0,0,214.7,88a156.5,156.5,0,0,0,17.65-14.16c10.1-9.43,16.84-18.76,19.21-26.15a20.83,20.83,0,0,0,1-5,12.57,12.57,0,0,0-.31-3.73,13.71,13.71,0,0,0-1.13-2.88s.14.23.39.69a5.22,5.22,0,0,1,.42.88,7.69,7.69,0,0,1,.42,1.28,12.29,12.29,0,0,1,.36,3.76,20.49,20.49,0,0,1-1,5.07c-2.34,7.47-9.06,16.87-19.16,26.36A155.83,155.83,0,0,1,215,88.34a178.51,178.51,0,0,1-22.38,13.32,129.58,129.58,0,0,1-26.91,10.13,59.26,59.26,0,0,1-15.12,1.85,25,25,0,0,1-7.73-1.29,14.9,14.9,0,0,1-3.56-1.8,11.7,11.7,0,0,1-2.77-2.93,11.53,11.53,0,0,1-1.41-3.78,15.24,15.24,0,0,1,0-4,25.42,25.42,0,0,1,2.24-7.5,60,60,0,0,1,8.3-12.77,130,130,0,0,1,20.92-19.72,178.25,178.25,0,0,1,21.79-14.25A156.38,156.38,0,0,1,208.82,36c13-4.89,24.36-6.81,32.1-5.62a20.61,20.61,0,0,1,5,1.34,12.52,12.52,0,0,1,3.22,2,7.18,7.18,0,0,1,1,.94,4.41,4.41,0,0,1,.61.77Z" style="fill: rgb(173, 217, 13); transform-origin: 193.86px 71.8395px;" id="el2vo4uu12hy2" class="animable"></path><path d="M233.72,71.84a9.69,9.69,0,0,0-1.06-1.12,8,8,0,0,0-4.07-1.57c-3.84-.54-9.49.45-15.93,2.92a86.13,86.13,0,0,0-21,12,64.93,64.93,0,0,0-10.39,9.81,29.7,29.7,0,0,0-4.09,6.31,12.18,12.18,0,0,0-1.09,3.63,7,7,0,0,0,0,1.89,4.72,4.72,0,0,0,1.93,3.1,7,7,0,0,0,1.68.85,12.23,12.23,0,0,0,3.75.62,29.48,29.48,0,0,0,7.46-.9,65.22,65.22,0,0,0,13.38-5,86.33,86.33,0,0,0,20-13.66c5.05-4.7,8.43-9.35,9.62-13a6.74,6.74,0,0,0-.16-5.79,4.49,4.49,0,0,1,.64,1.42,7.89,7.89,0,0,1-.28,4.44c-1.16,3.75-4.52,8.47-9.57,13.23a85.8,85.8,0,0,1-20,13.82A65.22,65.22,0,0,1,191,109.83a29.86,29.86,0,0,1-7.6.93,12.81,12.81,0,0,1-3.9-.65,7.19,7.19,0,0,1-1.81-.92,5.8,5.8,0,0,1-1.42-1.5,5.93,5.93,0,0,1-.73-1.94,7.67,7.67,0,0,1,0-2,12.59,12.59,0,0,1,1.13-3.79,30.33,30.33,0,0,1,4.17-6.41,65.1,65.1,0,0,1,10.49-9.88,85.41,85.41,0,0,1,21.21-11.91c6.49-2.45,12.2-3.39,16.08-2.78a7.92,7.92,0,0,1,4.11,1.69,4.06,4.06,0,0,1,.79.87C233.65,71.72,233.72,71.84,233.72,71.84Z" style="fill: rgb(173, 217, 13); transform-origin: 205.03px 89.7802px;" id="el0c48kbnhosuc" class="animable"></path><path d="M206.36,60s-.19-.22-.58-.57a4.49,4.49,0,0,0-2.13-.79c-2-.27-5,.27-8.33,1.56a46.11,46.11,0,0,0-11,6.29,33.15,33.15,0,0,0-5.42,5.15,14.15,14.15,0,0,0-2.14,3.28,4.12,4.12,0,0,0-.23,3.7A4.13,4.13,0,0,0,180,80a14.78,14.78,0,0,0,3.88-.47,33.75,33.75,0,0,0,7-2.62,46,46,0,0,0,10.49-7.13c2.64-2.46,4.42-4.88,5.06-6.79a4.43,4.43,0,0,0,.22-2.26c-.14-.51-.28-.76-.25-.77a2.66,2.66,0,0,1,.35.74,4.24,4.24,0,0,1-.13,2.35c-.59,2-2.36,4.47-5,7a45.27,45.27,0,0,1-10.53,7.29A33.27,33.27,0,0,1,184,80a15.22,15.22,0,0,1-4,.5c-.34,0-.69-.06-1-.09a7.53,7.53,0,0,1-1-.26,3,3,0,0,1-2.18-3.48,8.89,8.89,0,0,1,.23-1.05c.13-.33.23-.67.38-1a15.35,15.35,0,0,1,2.21-3.39,33.62,33.62,0,0,1,5.53-5.2,44.91,44.91,0,0,1,11.17-6.25c3.43-1.26,6.44-1.76,8.49-1.42a4.28,4.28,0,0,1,2.16.91A2.89,2.89,0,0,1,206.36,60Z" style="fill: rgb(173, 217, 13); transform-origin: 191.311px 69.3783px;" id="elnqe5n1e6xg" class="animable"></path></g><g id="freepik--Chart--inject-185" class="animable" style="transform-origin: 368.215px 213.074px;"><path d="M357.37,212.68c-.07.13-9.35-4.82-20.73-11s-20.56-11.38-20.49-11.51,9.35,4.82,20.74,11.05S357.44,212.55,357.37,212.68Z" style="fill: rgb(173, 217, 13); transform-origin: 336.76px 201.425px;" id="elsu87vzwvzy" class="animable"></path><path d="M420.28,215.71l-.66,0h-1.91l-7.35,0h-.08l0-.08-5.53-15.32.36,0c-1.11,6.23-2.42,13.53-3.86,21.57l-.12.7-.31-.64-5.74-11.85.46,0c-.66,1.77-1.36,3.69-2.08,5.64l-.06.17h-9.25l0-.22c-.49-3.55-1-7.29-1.54-11.09-.27-1.95-.54-3.9-.8-5.82h.51c-1.7,13-3.3,25.17-4.71,35.89l-.17,1.32-.28-1.3c-2.29-10.78-4.27-20.07-5.8-27.29l.29,0-4.65,9.31,0,.05h-6.56l-.46,0,.46,0,1.34,0,5.16-.1-.09.06,4.55-9.35.2-.41.09.44c1.57,7.21,3.6,16.49,5.95,27.26l-.45,0c1.39-10.72,3-22.91,4.65-35.9l.25-1.92.26,1.92q.4,2.88.81,5.82c.53,3.8,1,7.54,1.53,11.09l-.25-.23h8.84l-.24.16,2.09-5.63.2-.55.26.52c2,4.12,3.89,8.09,5.7,11.87l-.43.06c1.47-8,2.81-15.33,4-21.56l.12-.69.23.66c2.17,6.18,4,11.39,5.4,15.37l-.11-.08,7.35.13,1.91,0Z" style="fill: rgb(173, 217, 13); transform-origin: 390.13px 216.405px;" id="elcqznd9taagd" class="animable"></path><path d="M358.51,212.25a1.81,1.81,0,1,1-1.81-1.81A1.81,1.81,0,0,1,358.51,212.25Z" style="fill: rgb(173, 217, 13); transform-origin: 356.7px 212.25px;" id="elbg5i7lge3j8" class="animable"></path></g><g id="freepik--Texts--inject-185" class="animable animator-active" style="transform-origin: 253.065px 101.216px;"><path d="M350.77,139.43c.08.12-8.76,5.67-19.73,12.4s-19.93,12.07-20,11.95,8.76-5.67,19.74-12.4S350.69,139.31,350.77,139.43Z" style="fill: rgb(173, 217, 13); transform-origin: 330.905px 151.605px;" id="elh07y6uy5rqu" class="animable"></path><rect x="369.87" y="133.93" width="13.93" height="3.76" style="fill: rgb(173, 217, 13); transform-origin: 376.835px 135.81px;" id="elqq68cqyxlwl" class="animable"></rect><rect x="390.17" y="127.57" width="5.26" height="3.76" style="fill: rgb(173, 217, 13); transform-origin: 392.8px 129.45px;" id="el9w8if69i6ur" class="animable"></rect><rect x="386.49" y="133.93" width="8.94" height="3.76" style="fill: rgb(173, 217, 13); transform-origin: 390.96px 135.81px;" id="elk3yepx2yyq" class="animable"></rect><rect x="362.26" y="133.93" width="5.26" height="3.76" style="fill: rgb(173, 217, 13); transform-origin: 364.89px 135.81px;" id="elenuip1wuo0p" class="animable"></rect><rect x="362.13" y="141.17" width="24.36" height="3.76" style="fill: rgb(173, 217, 13); transform-origin: 374.31px 143.05px;" id="elfhjeoesg5o8" class="animable"></rect><rect x="369.87" y="147.53" width="13.93" height="3.76" style="fill: rgb(173, 217, 13); transform-origin: 376.835px 149.41px;" id="elay5bzvqkr09" class="animable"></rect><rect x="390.17" y="141.17" width="5.26" height="3.76" style="fill: rgb(173, 217, 13); transform-origin: 392.8px 143.05px;" id="elyz2ylvhf0vp" class="animable"></rect><rect x="386.49" y="147.53" width="8.94" height="3.76" style="fill: rgb(173, 217, 13); transform-origin: 390.96px 149.41px;" id="el8s2sbszsd7h" class="animable"></rect><rect x="362.26" y="147.53" width="5.26" height="3.76" style="fill: rgb(173, 217, 13); transform-origin: 364.89px 149.41px;" id="el5cntztsoojj" class="animable"></rect><path d="M352.58,139.43a1.81,1.81,0,1,1-1.81-1.81A1.81,1.81,0,0,1,352.58,139.43Z" style="fill: rgb(173, 217, 13); transform-origin: 350.77px 139.43px;" id="elu1mo7jto9p" class="animable"></path><rect x="250.64" y="38.65" width="19.35" height="4.9" style="fill: rgb(173, 217, 13); transform-origin: 260.315px 41.1px;" id="el2fj84m867z1" class="animable"></rect><rect x="245.37" y="45.5" width="19.35" height="4.9" style="fill: rgb(173, 217, 13); transform-origin: 255.045px 47.95px;" id="elbowc5o6octm" class="animable"></rect><rect x="272.37" y="38.65" width="8.33" height="4.9" style="fill: rgb(224, 224, 224); transform-origin: 276.535px 41.1px;" id="el9ece61q1p7l" class="animable"></rect><rect x="246.92" y="38.65" width="1.89" height="4.9" style="fill: rgb(224, 224, 224); transform-origin: 247.865px 41.1px;" id="elyqmyh15jaaj" class="animable"></rect><rect x="267.13" y="45.65" width="1.89" height="4.9" style="fill: rgb(224, 224, 224); transform-origin: 268.075px 48.1px;" id="elzrlmdq9bm" class="animable"></rect><rect x="271.06" y="45.65" width="1.89" height="4.9" style="fill: rgb(224, 224, 224); transform-origin: 272.005px 48.1px;" id="elhwd3rzkjau4" class="animable"></rect><rect x="110.7" y="111.59" width="37.47" height="4.31" style="fill: rgb(173, 217, 13); transform-origin: 129.435px 113.745px;" id="elvuf98kapwra" class="animable"></rect><rect x="110.7" y="125.33" width="37.47" height="4.31" style="fill: rgb(173, 217, 13); transform-origin: 129.435px 127.485px;" id="el8c91m63c6ca" class="animable"></rect><rect x="110.7" y="118.34" width="2.24" height="4.31" style="fill: rgb(173, 217, 13); transform-origin: 111.82px 120.495px;" id="elqyaxstvote" class="animable"></rect><rect x="151.15" y="126.09" width="2.24" height="4.31" style="fill: rgb(224, 224, 224); transform-origin: 152.27px 128.245px;" id="eldfgsgupt738" class="animable"></rect><rect x="150.26" y="111.59" width="7.32" height="4.31" style="fill: rgb(173, 217, 13); transform-origin: 153.92px 113.745px;" id="el9mpqqcjrf98" class="animable"></rect><rect x="130.17" y="118.29" width="7.32" height="4.31" style="fill: rgb(173, 217, 13); transform-origin: 133.83px 120.445px;" id="el2hqo6nzk4y7" class="animable"></rect><rect x="139.48" y="118.18" width="11.72" height="4.31" style="fill: rgb(173, 217, 13); transform-origin: 145.34px 120.335px;" id="elbnjw2sar3ys" class="animable"></rect></g><defs>     <filter id="active" height="200%">         <feMorphology in="SourceAlpha" result="DILATED" operator="dilate" radius="2"></feMorphology>                <feFlood flood-color="#32DFEC" flood-opacity="1" result="PINK"></feFlood>        <feComposite in="PINK" in2="DILATED" operator="in" result="OUTLINE"></feComposite>        <feMerge>            <feMergeNode in="OUTLINE"></feMergeNode>            <feMergeNode in="SourceGraphic"></feMergeNode>        </feMerge>    </filter>    <filter id="hover" height="200%">        <feMorphology in="SourceAlpha" result="DILATED" operator="dilate" radius="2"></feMorphology>                <feFlood flood-color="#ff0000" flood-opacity="0.5" result="PINK"></feFlood>        <feComposite in="PINK" in2="DILATED" operator="in" result="OUTLINE"></feComposite>        <feMerge>            <feMergeNode in="OUTLINE"></feMergeNode>            <feMergeNode in="SourceGraphic"></feMergeNode>        </feMerge>            <feColorMatrix type="matrix" values="0   0   0   0   0                0   1   0   0   0                0   0   0   0   0                0   0   0   1   0 "></feColorMatrix>    </filter></defs></svg>