<svg class="animated" id="freepik_stories-robot-face" xmlns="http://www.w3.org/2000/svg" viewBox="0 0 500 500" version="1.1" xmlns:xlink="http://www.w3.org/1999/xlink" xmlns:svgjs="http://svgjs.com/svgjs"><style>svg#freepik_stories-robot-face:not(.animated) .animable {opacity: 0;}svg#freepik_stories-robot-face.animated #freepik--background-complete--inject-211 {animation: 1.5s Infinite  linear floating;animation-delay: 0s;}svg#freepik_stories-robot-face.animated #freepik--speech-bubble--inject-211 {animation: 3s Infinite  linear floating;animation-delay: 0s;}svg#freepik_stories-robot-face.animated #freepik--robot-face--inject-211 {animation: 6s Infinite  linear wind;animation-delay: 0s;}            @keyframes floating {                0% {                    opacity: 1;                    transform: translateY(0px);                }                50% {                    transform: translateY(-10px);                }                100% {                    opacity: 1;                    transform: translateY(0px);                }            }                    @keyframes wind {                0% {                    transform: rotate( 0deg );                }                25% {                    transform: rotate( 1deg );                }                75% {                    transform: rotate( -1deg );                }            }        </style><g id="freepik--background-complete--inject-211" class="animable" style="transform-origin: 250px 228.23px;"><rect y="382.4" width="500" height="0.25" style="fill: rgb(235, 235, 235); transform-origin: 250px 382.525px;" id="el2hhewsp8i2" class="animable"></rect><rect x="416.78" y="398.49" width="33.12" height="0.25" style="fill: rgb(235, 235, 235); transform-origin: 433.34px 398.615px;" id="elj1z8umfowf" class="animable"></rect><rect x="322.53" y="401.21" width="8.69" height="0.25" style="fill: rgb(235, 235, 235); transform-origin: 326.875px 401.335px;" id="elf8hfqb6j5rk" class="animable"></rect><rect x="396.59" y="389.21" width="19.19" height="0.25" style="fill: rgb(235, 235, 235); transform-origin: 406.185px 389.335px;" id="el9a9g4t4ho9q" class="animable"></rect><rect x="52.46" y="390.89" width="43.19" height="0.25" style="fill: rgb(235, 235, 235); transform-origin: 74.055px 391.015px;" id="elhnt78y9ioeb" class="animable"></rect><rect x="104.56" y="390.89" width="6.33" height="0.25" style="fill: rgb(235, 235, 235); transform-origin: 107.725px 391.015px;" id="elw04za9mtn4" class="animable"></rect><rect x="131.47" y="395.11" width="93.68" height="0.25" style="fill: rgb(235, 235, 235); transform-origin: 178.31px 395.235px;" id="elefo0ltyydtw" class="animable"></rect><path d="M237,337.8H43.91a5.71,5.71,0,0,1-5.7-5.71V60.66A5.71,5.71,0,0,1,43.91,55H237a5.71,5.71,0,0,1,5.71,5.71V332.09A5.71,5.71,0,0,1,237,337.8ZM43.91,55.2a5.46,5.46,0,0,0-5.45,5.46V332.09a5.46,5.46,0,0,0,5.45,5.46H237a5.47,5.47,0,0,0,5.46-5.46V60.66A5.47,5.47,0,0,0,237,55.2Z" style="fill: rgb(235, 235, 235); transform-origin: 140.46px 196.4px;" id="elgghs1wevoij" class="animable"></path><path d="M453.31,337.8H260.21a5.72,5.72,0,0,1-5.71-5.71V60.66A5.72,5.72,0,0,1,260.21,55h193.1A5.71,5.71,0,0,1,459,60.66V332.09A5.71,5.71,0,0,1,453.31,337.8ZM260.21,55.2a5.47,5.47,0,0,0-5.46,5.46V332.09a5.47,5.47,0,0,0,5.46,5.46h193.1a5.47,5.47,0,0,0,5.46-5.46V60.66a5.47,5.47,0,0,0-5.46-5.46Z" style="fill: rgb(235, 235, 235); transform-origin: 356.75px 196.4px;" id="el9qhn6sxqylu" class="animable"></path><rect x="76.77" y="111.27" width="195.56" height="115.15" style="fill: rgb(235, 235, 235); transform-origin: 174.55px 168.845px;" id="elv8kde92cdz" class="animable"></rect><rect x="79.95" y="120.73" width="189.2" height="101.48" style="fill: rgb(224, 224, 224); transform-origin: 174.55px 171.47px;" id="elpp7g8jb612" class="animable"></rect><rect x="89.21" y="131.29" width="62.05" height="2.92" style="fill: rgb(240, 240, 240); transform-origin: 120.235px 132.75px;" id="elkeja34g46qm" class="animable"></rect><rect x="89.21" y="137.44" width="62.05" height="2.92" style="fill: rgb(240, 240, 240); transform-origin: 120.235px 138.9px;" id="el3cdyt8g1qf" class="animable"></rect><rect x="89.21" y="143.59" width="62.05" height="2.92" style="fill: rgb(240, 240, 240); transform-origin: 120.235px 145.05px;" id="elevsj6493rir" class="animable"></rect><rect x="99.21" y="149.73" width="62.05" height="2.92" style="fill: rgb(240, 240, 240); transform-origin: 130.235px 151.19px;" id="elfa964y8p7q9" class="animable"></rect><rect x="99.21" y="155.88" width="62.05" height="2.92" style="fill: rgb(240, 240, 240); transform-origin: 130.235px 157.34px;" id="ellxb5vpknm4o" class="animable"></rect><rect x="99.21" y="162.03" width="62.05" height="2.92" style="fill: rgb(240, 240, 240); transform-origin: 130.235px 163.49px;" id="elidoe32441nk" class="animable"></rect><rect x="109.22" y="168.17" width="62.05" height="2.92" style="fill: rgb(240, 240, 240); transform-origin: 140.245px 169.63px;" id="ellwzjscg0s0q" class="animable"></rect><rect x="109.22" y="174.32" width="62.05" height="2.92" style="fill: rgb(240, 240, 240); transform-origin: 140.245px 175.78px;" id="el1wang1mvscg" class="animable"></rect><rect x="99.21" y="180.47" width="62.05" height="2.92" style="fill: rgb(240, 240, 240); transform-origin: 130.235px 181.93px;" id="elx588vhemip" class="animable"></rect><rect x="109.22" y="186.62" width="62.05" height="2.92" style="fill: rgb(240, 240, 240); transform-origin: 140.245px 188.08px;" id="elc1r4yxopkok" class="animable"></rect><rect x="109.22" y="192.76" width="62.05" height="2.92" style="fill: rgb(240, 240, 240); transform-origin: 140.245px 194.22px;" id="elgw9bnwyj0ec" class="animable"></rect><rect x="89.21" y="198.91" width="62.05" height="2.92" style="fill: rgb(240, 240, 240); transform-origin: 120.235px 200.37px;" id="elstdvya70pc9" class="animable"></rect><rect x="89.21" y="205.06" width="62.05" height="2.92" style="fill: rgb(240, 240, 240); transform-origin: 120.235px 206.52px;" id="el1x2hpe1w3au" class="animable"></rect><rect x="89.21" y="211.2" width="62.05" height="2.92" style="fill: rgb(240, 240, 240); transform-origin: 120.235px 212.66px;" id="elyc7efsfbgtg" class="animable"></rect><rect x="305.37" y="269.96" width="127.76" height="75.23" style="fill: rgb(235, 235, 235); transform-origin: 369.25px 307.575px;" id="elb5abijcrcih" class="animable"></rect><rect x="307.45" y="276.14" width="123.61" height="66.3" style="fill: rgb(224, 224, 224); transform-origin: 369.255px 309.29px;" id="elu4exlsg8k1s" class="animable"></rect><rect x="313.5" y="283.04" width="40.54" height="1.91" style="fill: rgb(240, 240, 240); transform-origin: 333.77px 283.995px;" id="eletplq810uq9" class="animable"></rect><rect x="313.5" y="287.05" width="40.54" height="1.91" style="fill: rgb(240, 240, 240); transform-origin: 333.77px 288.005px;" id="elp1d57ltvobl" class="animable"></rect><rect x="313.5" y="291.07" width="40.54" height="1.91" style="fill: rgb(240, 240, 240); transform-origin: 333.77px 292.025px;" id="elbr42t4oo3ws" class="animable"></rect><rect x="320.03" y="295.09" width="40.54" height="1.91" style="fill: rgb(240, 240, 240); transform-origin: 340.3px 296.045px;" id="el8ui1c47iyf4" class="animable"></rect><rect x="320.03" y="299.1" width="40.54" height="1.91" style="fill: rgb(240, 240, 240); transform-origin: 340.3px 300.055px;" id="eleseimrik7zk" class="animable"></rect><rect x="320.03" y="303.12" width="40.54" height="1.91" style="fill: rgb(240, 240, 240); transform-origin: 340.3px 304.075px;" id="elz02x16v2rof" class="animable"></rect><rect x="326.57" y="307.13" width="40.54" height="1.91" style="fill: rgb(240, 240, 240); transform-origin: 346.84px 308.085px;" id="elawtlyznd8pu" class="animable"></rect><rect x="326.57" y="311.15" width="40.54" height="1.91" style="fill: rgb(240, 240, 240); transform-origin: 346.84px 312.105px;" id="el30tle5pxjg" class="animable"></rect><rect x="320.03" y="315.17" width="40.54" height="1.91" style="fill: rgb(240, 240, 240); transform-origin: 340.3px 316.125px;" id="el575igpbfzo3" class="animable"></rect><rect x="326.57" y="319.18" width="40.54" height="1.91" style="fill: rgb(240, 240, 240); transform-origin: 346.84px 320.135px;" id="elje16h80jlbo" class="animable"></rect><rect x="326.57" y="323.2" width="40.54" height="1.91" style="fill: rgb(240, 240, 240); transform-origin: 346.84px 324.155px;" id="elui1vcg9m36" class="animable"></rect><rect x="313.5" y="327.21" width="40.54" height="1.91" style="fill: rgb(240, 240, 240); transform-origin: 333.77px 328.165px;" id="el6lgbe43f7ih" class="animable"></rect><rect x="313.5" y="331.23" width="40.54" height="1.91" style="fill: rgb(240, 240, 240); transform-origin: 333.77px 332.185px;" id="elpjsujw8054" class="animable"></rect><rect x="313.5" y="335.25" width="40.54" height="1.91" style="fill: rgb(240, 240, 240); transform-origin: 333.77px 336.205px;" id="elalx484nylaj" class="animable"></rect><rect x="359.8" y="181.95" width="40.54" height="1.91" style="fill: rgb(240, 240, 240); transform-origin: 380.07px 182.905px;" id="elqgd95lzco7" class="animable"></rect><rect x="359.8" y="185.97" width="40.54" height="1.91" style="fill: rgb(240, 240, 240); transform-origin: 380.07px 186.925px;" id="elebtp3z4lexl" class="animable"></rect><rect x="359.8" y="189.99" width="40.54" height="1.91" style="fill: rgb(240, 240, 240); transform-origin: 380.07px 190.945px;" id="elnl4xi83e9yi" class="animable"></rect><rect x="359.8" y="194" width="47.08" height="1.91" style="fill: rgb(240, 240, 240); transform-origin: 383.34px 194.955px;" id="elerjhpago3f7" class="animable"></rect><rect x="359.8" y="198.02" width="47.08" height="1.91" style="fill: rgb(240, 240, 240); transform-origin: 383.34px 198.975px;" id="el1wrs2souwat" class="animable"></rect><rect x="338.61" y="118.22" width="40.54" height="1.91" style="fill: rgb(240, 240, 240); transform-origin: 358.88px 119.175px;" id="elncidjtofh4k" class="animable"></rect><rect x="338.61" y="122.24" width="40.54" height="1.91" style="fill: rgb(240, 240, 240); transform-origin: 358.88px 123.195px;" id="ell2ppa5zs9js" class="animable"></rect><rect x="338.61" y="126.25" width="40.54" height="1.91" style="fill: rgb(240, 240, 240); transform-origin: 358.88px 127.205px;" id="elbhywzkpuni4" class="animable"></rect><rect x="338.61" y="130.27" width="47.08" height="1.91" style="fill: rgb(240, 240, 240); transform-origin: 362.15px 131.225px;" id="eldmablesli1g" class="animable"></rect><rect x="338.61" y="134.29" width="47.08" height="1.91" style="fill: rgb(240, 240, 240); transform-origin: 362.15px 135.245px;" id="el0aoxgwav3c7r" class="animable"></rect><rect x="359.8" y="202.03" width="47.08" height="1.91" style="fill: rgb(240, 240, 240); transform-origin: 383.34px 202.985px;" id="eljsox5cdhlx" class="animable"></rect><rect x="359.8" y="206.05" width="53.62" height="1.91" style="fill: rgb(240, 240, 240); transform-origin: 386.61px 207.005px;" id="elifwa1pjjm3" class="animable"></rect><rect x="359.8" y="210.07" width="53.62" height="1.91" style="fill: rgb(240, 240, 240); transform-origin: 386.61px 211.025px;" id="elttrqqdtkq6" class="animable"></rect><rect x="359.8" y="214.08" width="47.08" height="1.91" style="fill: rgb(240, 240, 240); transform-origin: 383.34px 215.035px;" id="elg7xfrutr9qb" class="animable"></rect><rect x="359.8" y="218.1" width="53.62" height="1.91" style="fill: rgb(240, 240, 240); transform-origin: 386.61px 219.055px;" id="els7c315wd5x9" class="animable"></rect><rect x="359.8" y="222.11" width="53.62" height="1.91" style="fill: rgb(240, 240, 240); transform-origin: 386.61px 223.065px;" id="elw90od8wmw8g" class="animable"></rect><rect x="359.8" y="226.13" width="40.54" height="1.91" style="fill: rgb(240, 240, 240); transform-origin: 380.07px 227.085px;" id="elmmv5tly5u0j" class="animable"></rect><rect x="359.8" y="230.15" width="40.54" height="1.91" style="fill: rgb(240, 240, 240); transform-origin: 380.07px 231.105px;" id="elmckqn5fnhei" class="animable"></rect><rect x="359.8" y="234.16" width="40.54" height="1.91" style="fill: rgb(240, 240, 240); transform-origin: 380.07px 235.115px;" id="el2fk1tkm0wwq" class="animable"></rect><rect x="76.77" y="268.52" width="47.08" height="1.91" style="fill: rgb(240, 240, 240); transform-origin: 100.31px 269.475px;" id="elryw59ekpxv7" class="animable"></rect><rect x="76.77" y="272.54" width="53.62" height="1.91" style="fill: rgb(240, 240, 240); transform-origin: 103.58px 273.495px;" id="eluo6104oezkc" class="animable"></rect><rect x="76.77" y="276.56" width="53.62" height="1.91" style="fill: rgb(240, 240, 240); transform-origin: 103.58px 277.515px;" id="elb5aamwy45" class="animable"></rect><rect x="76.77" y="280.57" width="40.54" height="1.91" style="fill: rgb(240, 240, 240); transform-origin: 97.04px 281.525px;" id="el8jpz4ymort4" class="animable"></rect><rect x="76.77" y="284.59" width="40.54" height="1.91" style="fill: rgb(240, 240, 240); transform-origin: 97.04px 285.545px;" id="el0f5znohwh5ms" class="animable"></rect><rect x="76.77" y="288.6" width="40.54" height="1.91" style="fill: rgb(240, 240, 240); transform-origin: 97.04px 289.555px;" id="el27efau3er3m" class="animable"></rect><rect x="347.02" y="181.93" width="8.07" height="8.07" style="fill: rgb(240, 240, 240); transform-origin: 351.055px 185.965px;" id="elb0tuibh9osi" class="animable"></rect><rect x="173.71" y="308.92" width="40.54" height="1.91" style="fill: rgb(240, 240, 240); transform-origin: 193.98px 309.875px;" id="elguss0niqg6s" class="animable"></rect><rect x="173.71" y="312.93" width="40.54" height="1.91" style="fill: rgb(240, 240, 240); transform-origin: 193.98px 313.885px;" id="elfw130csclgv" class="animable"></rect><rect x="173.71" y="316.95" width="40.54" height="1.91" style="fill: rgb(240, 240, 240); transform-origin: 193.98px 317.905px;" id="elf4izfp178np" class="animable"></rect><rect x="173.71" y="320.97" width="47.08" height="1.91" style="fill: rgb(240, 240, 240); transform-origin: 197.25px 321.925px;" id="elxzxo8ssuty9" class="animable"></rect><rect x="173.71" y="324.98" width="47.08" height="1.91" style="fill: rgb(240, 240, 240); transform-origin: 197.25px 325.935px;" id="elxlvelgdfk6q" class="animable"></rect><rect x="173.71" y="329" width="47.08" height="1.91" style="fill: rgb(240, 240, 240); transform-origin: 197.25px 329.955px;" id="elhpan8aoix4t" class="animable"></rect><rect x="173.71" y="333.01" width="53.62" height="1.91" style="fill: rgb(240, 240, 240); transform-origin: 200.52px 333.965px;" id="elr35mog0gfk" class="animable"></rect><rect x="173.71" y="337.03" width="53.62" height="1.91" style="fill: rgb(240, 240, 240); transform-origin: 200.52px 337.985px;" id="el5fd53bsojht" class="animable"></rect><rect x="173.71" y="341.05" width="47.08" height="1.91" style="fill: rgb(240, 240, 240); transform-origin: 197.25px 342.005px;" id="elcf6jt28d09g" class="animable"></rect><rect x="173.71" y="345.06" width="53.62" height="1.91" style="fill: rgb(240, 240, 240); transform-origin: 200.52px 346.015px;" id="eln8m82u5o0q" class="animable"></rect><rect x="173.71" y="349.08" width="53.62" height="1.91" style="fill: rgb(240, 240, 240); transform-origin: 200.52px 350.035px;" id="eltkzm5u20oj" class="animable"></rect><rect x="173.71" y="353.09" width="40.54" height="1.91" style="fill: rgb(240, 240, 240); transform-origin: 193.98px 354.045px;" id="el8pk26zizjsd" class="animable"></rect><rect x="173.71" y="357.11" width="40.54" height="1.91" style="fill: rgb(240, 240, 240); transform-origin: 193.98px 358.065px;" id="elf7t3g6nbipv" class="animable"></rect><path d="M66,272a3.46,3.46,0,1,0,3.46-3.46A3.45,3.45,0,0,0,66,272Z" style="fill: rgb(240, 240, 240); transform-origin: 69.46px 272px;" id="el5931a43zcdj" class="animable"></path><polygon points="164.03 309.63 160.22 316.23 167.84 316.23 164.03 309.63" style="fill: rgb(240, 240, 240); transform-origin: 164.03px 312.93px;" id="eljrn6s9hx42k" class="animable"></polygon></g><g id="freepik--Shadow--inject-211" class="animable" style="transform-origin: 250px 416.24px;"><ellipse id="freepik--path--inject-211" cx="250" cy="416.24" rx="193.89" ry="11.32" style="fill: rgb(245, 245, 245); transform-origin: 250px 416.24px;" class="animable"></ellipse></g><g id="freepik--speech-bubble--inject-211" class="animable" style="transform-origin: 318.09px 155.415px;"><path d="M332.46,127.12H303.73a8.85,8.85,0,0,0-8.85,8.85v25a8.85,8.85,0,0,0,8.85,8.85h8.39l-7,13.89,13-13.89h14.39A8.85,8.85,0,0,0,341.3,161V136A8.84,8.84,0,0,0,332.46,127.12Z" style="fill: rgb(173, 217, 13); transform-origin: 318.09px 155.415px;" id="elsgmsm2u8fmg" class="animable"></path><g id="elxaq95dxbeym"><path d="M332.46,127.12H303.73a8.85,8.85,0,0,0-8.85,8.85v25a8.85,8.85,0,0,0,8.85,8.85h8.39l-7,13.89,13-13.89h14.39A8.85,8.85,0,0,0,341.3,161V136A8.84,8.84,0,0,0,332.46,127.12Z" style="fill: rgb(255, 255, 255); opacity: 0.7; transform-origin: 318.09px 155.415px;" class="animable"></path></g><g id="el461rdkfq51"><circle cx="318.09" cy="148.36" r="14.26" style="fill: rgb(173, 217, 13); transform-origin: 318.09px 148.36px; transform: rotate(-45deg);" class="animable"></circle></g><path d="M316.6,154.73a1.31,1.31,0,0,1-1-.46l-5.6-6.59a1.31,1.31,0,0,1,2-1.7l4.6,5.41,7.59-8.94a1.31,1.31,0,1,1,2,1.7l-8.58,10.12A1.33,1.33,0,0,1,316.6,154.73Z" style="fill: rgb(255, 255, 255); transform-origin: 318.095px 148.359px;" id="eld3rkxfi1hq5" class="animable"></path></g><g id="freepik--robot-face--inject-211" class="animable animator-active" style="transform-origin: 249.69px 281.04px;"><path d="M383,405.89h5.09a2.51,2.51,0,0,1,2.51,2.51v6.32a0,0,0,0,1,0,0H380.46a0,0,0,0,1,0,0V408.4A2.51,2.51,0,0,1,383,405.89Z" style="fill: rgb(38, 50, 56); transform-origin: 385.53px 410.305px;" id="elai19sjppijl" class="animable"></path><path d="M383.38,409.27c0-.42-1.69-42.29-17.06-85.85-14.09-39.92-42.93-89.51-100.31-99l.66-4c26.23,4.35,48.92,17.05,67.43,37.73,14.74,16.46,26.86,38,36,64,15.55,44.13,17.24,86.53,17.25,87Z" style="fill: rgb(38, 50, 56); transform-origin: 326.68px 314.845px;" id="elr4r0pn5ojd" class="animable"></path><path d="M403,405.89h5.09a2.51,2.51,0,0,1,2.51,2.51v6.32a0,0,0,0,1,0,0H400.48a0,0,0,0,1,0,0V408.4A2.51,2.51,0,0,1,403,405.89Z" style="fill: rgb(38, 50, 56); transform-origin: 405.54px 410.305px;" id="elzi333u1rh8p" class="animable"></path><g id="el12zz1w5foz7"><path d="M383,405.89h5.09a2.51,2.51,0,0,1,2.51,2.51v6.32a0,0,0,0,1,0,0H380.46a0,0,0,0,1,0,0V408.4A2.51,2.51,0,0,1,383,405.89Z" style="fill: rgb(255, 255, 255); opacity: 0.2; transform-origin: 385.53px 410.305px;" class="animable"></path></g><g id="eld6lmv8nzg5"><path d="M403,405.89h5.09a2.51,2.51,0,0,1,2.51,2.51v6.32a0,0,0,0,1,0,0H400.48a0,0,0,0,1,0,0V408.4A2.51,2.51,0,0,1,403,405.89Z" style="fill: rgb(255, 255, 255); opacity: 0.2; transform-origin: 405.54px 410.305px;" class="animable"></path></g><path d="M403.54,410.45A72.45,72.45,0,0,0,395,383.8C385,366,368.9,355.93,347.15,354l.35-4c28.9,2.55,43.7,18.79,51,32a75,75,0,0,1,9,28.17Z" style="fill: rgb(38, 50, 56); transform-origin: 377.325px 380.225px;" id="elr7ls8kmq02" class="animable"></path><g id="el3o7sl69k9kf"><path d="M88.78,405.89H98.9a0,0,0,0,1,0,0v6.32a2.51,2.51,0,0,1-2.51,2.51H91.3a2.51,2.51,0,0,1-2.51-2.51v-6.32A0,0,0,0,1,88.78,405.89Z" style="fill: rgb(38, 50, 56); transform-origin: 93.84px 410.305px; transform: rotate(180deg);" class="animable"></path></g><path d="M92,409.2c0-.46.3-46.78,32.26-78.78,20.32-20.34,48.78-30.66,84.61-30.66v4c-46.84,0-80.06,17.67-98.73,52.53A125.45,125.45,0,0,0,96,409.2Z" style="fill: rgb(38, 50, 56); transform-origin: 150.435px 354.48px;" id="elsosqht2utxs" class="animable"></path><g id="el2mmzaet7zt5"><path d="M88.78,405.89H98.9a0,0,0,0,1,0,0v6.32a2.51,2.51,0,0,1-2.51,2.51H91.3a2.51,2.51,0,0,1-2.51-2.51v-6.32A0,0,0,0,1,88.78,405.89Z" style="fill: rgb(255, 255, 255); opacity: 0.2; transform-origin: 93.84px 410.305px; transform: rotate(180deg);" class="animable"></path></g><rect x="215.07" y="299.97" width="5.54" height="3.65" style="fill: rgb(38, 50, 56); transform-origin: 217.84px 301.795px;" id="el0x3h5anstg0d" class="animable"></rect><g id="el3jtf8spvols"><rect x="215.07" y="299.97" width="5.54" height="3.65" style="fill: rgb(255, 255, 255); opacity: 0.7; transform-origin: 217.84px 301.795px;" class="animable"></rect></g><rect x="204.85" y="298.53" width="12.59" height="6.53" rx="1.37" style="fill: rgb(38, 50, 56); transform-origin: 211.145px 301.795px;" id="el8tqantmtkz5" class="animable"></rect><g id="elmowt7hbe65"><rect x="204.85" y="298.53" width="12.59" height="6.53" rx="1.37" style="fill: rgb(255, 255, 255); opacity: 0.2; transform-origin: 211.145px 301.795px;" class="animable"></rect></g><g id="elfsc1xsczkns"><rect x="253.83" y="220.46" width="5.54" height="3.65" style="fill: rgb(38, 50, 56); transform-origin: 256.6px 222.285px; transform: rotate(180deg);" class="animable"></rect></g><g id="elv927qv39sg"><rect x="253.83" y="220.46" width="5.54" height="3.65" style="fill: rgb(255, 255, 255); opacity: 0.7; transform-origin: 256.6px 222.285px; transform: rotate(180deg);" class="animable"></rect></g><g id="ele0n6ta9h33l"><rect x="256.99" y="219.02" width="12.59" height="6.53" rx="1.37" style="fill: rgb(38, 50, 56); transform-origin: 263.285px 222.285px; transform: rotate(180deg);" class="animable"></rect></g><g id="elmiq1a3bxxl"><rect x="256.99" y="219.02" width="12.59" height="6.53" rx="1.37" style="fill: rgb(255, 255, 255); opacity: 0.2; transform-origin: 263.285px 222.285px; transform: rotate(180deg);" class="animable"></rect></g><g id="eldyfuygi29kl"><rect x="333.74" y="350.19" width="5.54" height="3.65" style="fill: rgb(38, 50, 56); transform-origin: 336.51px 352.015px; transform: rotate(180deg);" class="animable"></rect></g><g id="elp3q73crdn1"><rect x="333.74" y="350.19" width="5.54" height="3.65" style="fill: rgb(255, 255, 255); opacity: 0.7; transform-origin: 336.51px 352.015px; transform: rotate(180deg);" class="animable"></rect></g><g id="el4tmhze6w8v4"><rect x="336.91" y="348.75" width="12.59" height="6.53" rx="1.37" style="fill: rgb(38, 50, 56); transform-origin: 343.205px 352.015px; transform: rotate(180deg);" class="animable"></rect></g><g id="elxjc33ga3hxs"><rect x="336.91" y="348.75" width="12.59" height="6.53" rx="1.37" style="fill: rgb(255, 255, 255); opacity: 0.2; transform-origin: 343.205px 352.015px; transform: rotate(180deg);" class="animable"></rect></g><path d="M161.78,323.1h0l36.71-9.18h0a49.78,49.78,0,0,1,62,48.26v53.64H123.91v-44.4A49.77,49.77,0,0,1,161.78,323.1Z" style="fill: rgb(173, 217, 13); transform-origin: 192.2px 364.108px;" id="elfz5o2ljdfxu" class="animable"></path><g id="el34lcos017m"><path d="M161.78,323.1h0l36.71-9.18h0a49.78,49.78,0,0,1,62,48.26v53.64H123.91v-44.4A49.77,49.77,0,0,1,161.78,323.1Z" style="fill: rgb(255, 255, 255); opacity: 0.2; transform-origin: 192.2px 364.108px;" class="animable"></path></g><g id="el1hxapikwibk"><path d="M160.9,312.41h99.52a0,0,0,0,1,0,0v53.64a49.76,49.76,0,0,1-49.76,49.76h0a49.76,49.76,0,0,1-49.76-49.76V312.41A0,0,0,0,1,160.9,312.41Z" style="opacity: 0.2; transform-origin: 210.66px 364.11px; transform: rotate(180deg);" class="animable"></path></g><g id="elwyib59celeh"><rect x="205.25" y="236.05" width="71.27" height="105.16" style="fill: rgb(38, 50, 56); transform-origin: 240.885px 288.63px; transform: rotate(-5.62deg);" class="animable"></rect></g><g id="el3w0ag7dwse3"><rect x="198.11" y="247.59" width="78.24" height="7.74" rx="2.48" style="fill: rgb(38, 50, 56); transform-origin: 237.23px 251.46px; transform: rotate(-5.62deg);" class="animable"></rect></g><g id="elcjhghaewjun"><rect x="198.11" y="247.59" width="78.24" height="7.74" rx="2.48" style="fill: rgb(255, 255, 255); opacity: 0.1; transform-origin: 237.23px 251.46px; transform: rotate(-5.62deg);" class="animable"></rect></g><g id="elslylfil7z7r"><rect x="199.49" y="261.62" width="78.24" height="7.74" rx="2.48" style="fill: rgb(38, 50, 56); transform-origin: 238.61px 265.49px; transform: rotate(-5.62deg);" class="animable"></rect></g><g id="el7nvdz7i8sgg"><rect x="199.49" y="261.62" width="78.24" height="7.74" rx="2.48" style="fill: rgb(255, 255, 255); opacity: 0.1; transform-origin: 238.61px 265.49px; transform: rotate(-5.62deg);" class="animable"></rect></g><g id="eltdmdlafc1l"><rect x="200.87" y="275.65" width="78.24" height="7.74" rx="2.48" style="fill: rgb(38, 50, 56); transform-origin: 239.99px 279.52px; transform: rotate(-5.71059deg);" class="animable"></rect></g><g id="elc0m1wht3rcm"><rect x="200.87" y="275.65" width="78.24" height="7.74" rx="2.48" style="fill: rgb(255, 255, 255); opacity: 0.1; transform-origin: 239.99px 279.52px; transform: rotate(-5.71059deg);" class="animable"></rect></g><g id="elozjjbsx8ej"><rect x="202.25" y="289.68" width="78.24" height="7.74" rx="2.48" style="fill: rgb(38, 50, 56); transform-origin: 241.37px 293.55px; transform: rotate(-5.62deg);" class="animable"></rect></g><g id="el0caqcucdsydb"><rect x="202.25" y="289.68" width="78.24" height="7.74" rx="2.48" style="fill: rgb(255, 255, 255); opacity: 0.1; transform-origin: 241.37px 293.55px; transform: rotate(-5.62deg);" class="animable"></rect></g><g id="elqkz5ng7nmhj"><rect x="203.63" y="303.7" width="78.24" height="7.74" rx="2.48" style="fill: rgb(38, 50, 56); transform-origin: 242.75px 307.57px; transform: rotate(-5.62deg);" class="animable"></rect></g><g id="elm4qhmysx129"><rect x="203.63" y="303.7" width="78.24" height="7.74" rx="2.48" style="fill: rgb(255, 255, 255); opacity: 0.1; transform-origin: 242.75px 307.57px; transform: rotate(-5.62deg);" class="animable"></rect></g><g id="el92g6ge9kkfc"><rect x="205.01" y="317.73" width="78.24" height="7.74" rx="2.48" style="fill: rgb(38, 50, 56); transform-origin: 244.13px 321.6px; transform: rotate(-5.62deg);" class="animable"></rect></g><g id="elgignvhtlbut"><rect x="205.01" y="317.73" width="78.24" height="7.74" rx="2.48" style="fill: rgb(255, 255, 255); opacity: 0.1; transform-origin: 244.13px 321.6px; transform: rotate(-5.62deg);" class="animable"></rect></g><path d="M207.57,337h85.23a0,0,0,0,1,0,0v22.52a0,0,0,0,1,0,0H200.58a0,0,0,0,1,0,0V344A7,7,0,0,1,207.57,337Z" style="fill: rgb(38, 50, 56); transform-origin: 246.69px 348.26px;" id="ela004x09bnoo" class="animable"></path><g id="elmkp3994glv"><path d="M207.57,337h85.23a0,0,0,0,1,0,0v22.52a0,0,0,0,1,0,0H200.58a0,0,0,0,1,0,0V344A7,7,0,0,1,207.57,337Z" style="fill: rgb(255, 255, 255); opacity: 0.2; transform-origin: 246.69px 348.26px;" class="animable"></path></g><path d="M244.21,348.23v67.59H160.9V362.18a49.41,49.41,0,0,1,2-13.95Z" style="fill: rgb(173, 217, 13); transform-origin: 202.555px 382.025px;" id="elq9qsakrr5k" class="animable"></path><path d="M332.59,323.1h0l-36.71-9.18h0A49.78,49.78,0,0,0,234,362.18v53.64H370.47v-44.4A49.78,49.78,0,0,0,332.59,323.1Z" style="fill: rgb(173, 217, 13); transform-origin: 302.235px 364.124px;" id="eltuhqdlbejk9" class="animable"></path><g id="elaizkltcggdm"><path d="M332.59,323.1h0l-36.71-9.18h0A49.78,49.78,0,0,0,234,362.18v53.64H370.47v-44.4A49.78,49.78,0,0,0,332.59,323.1Z" style="fill: rgb(255, 255, 255); opacity: 0.2; transform-origin: 302.235px 364.124px;" class="animable"></path></g><g id="ell8gm8qvn8db"><path d="M320.7,321.66h0a49.76,49.76,0,0,1,49.76,49.76v44.39a0,0,0,0,1,0,0H270.94a0,0,0,0,1,0,0V371.42A49.76,49.76,0,0,1,320.7,321.66Z" style="opacity: 0.2; transform-origin: 320.7px 368.735px;" class="animable"></path></g><path d="M147.82,370.78h90.84a16.61,16.61,0,0,1,16.61,16.61v28.43a0,0,0,0,1,0,0H131.22a0,0,0,0,1,0,0V387.38A16.61,16.61,0,0,1,147.82,370.78Z" style="fill: rgb(38, 50, 56); transform-origin: 193.245px 393.3px;" id="el9jxyh3vqv9b" class="animable"></path><g id="elv8dzk4pnmif"><path d="M147.82,370.78h90.84a16.61,16.61,0,0,1,16.61,16.61v28.43a0,0,0,0,1,0,0H131.22a0,0,0,0,1,0,0V387.38A16.61,16.61,0,0,1,147.82,370.78Z" style="fill: rgb(255, 255, 255); opacity: 0.2; transform-origin: 193.245px 393.3px;" class="animable"></path></g><g id="elsmmik8e4gm"><path d="M144.41,376.23h72.17a13.2,13.2,0,0,1,13.2,13.2v26.39a0,0,0,0,1,0,0H131.22a0,0,0,0,1,0,0V389.43A13.2,13.2,0,0,1,144.41,376.23Z" style="fill: rgb(255, 255, 255); opacity: 0.2; transform-origin: 180.5px 396.025px;" class="animable"></path></g><g id="ellxu5mvrbm"><path d="M325.34,340.25h0c-15.39,0-27.87,13.67-27.87,30.53h0c0,16.86,12.48,30.52,27.87,30.52h0c15.4,0,27.88-13.66,27.88-30.52h0C353.22,353.92,340.74,340.25,325.34,340.25Z" style="opacity: 0.4; transform-origin: 325.345px 370.775px;" class="animable"></path></g><path d="M324,341.67h0c-14.67,0-26.57,13-26.57,29.11h0c0,16.07,11.9,29.1,26.57,29.1h0c14.68,0,26.57-13,26.57-29.1h0C350.61,354.7,338.72,341.67,324,341.67Z" style="fill: rgb(38, 50, 56); transform-origin: 324px 370.775px;" id="elkmjdqrm1vvl" class="animable"></path><path d="M322.38,357.2h6.48c6.36,0,11.51,6.08,11.51,13.58s-5.15,13.57-11.51,13.57h-6.48c-6.36,0-11.51-6.08-11.51-13.57S316,357.2,322.38,357.2Z" style="fill: rgb(173, 217, 13); transform-origin: 325.62px 370.775px;" id="el7tc42yks8iu" class="animable"></path><g id="elxqk5exql8hb"><path d="M322.38,357.2h6.48c6.36,0,11.51,6.08,11.51,13.58s-5.15,13.57-11.51,13.57h-6.48c-6.36,0-11.51-6.08-11.51-13.57S316,357.2,322.38,357.2Z" style="opacity: 0.4; transform-origin: 325.62px 370.775px;" class="animable"></path></g><ellipse cx="328.86" cy="370.78" rx="11.52" ry="13.57" style="fill: rgb(173, 217, 13); transform-origin: 328.86px 370.78px;" id="eldxiofi9v23" class="animable"></ellipse><g id="elj5ppktrracj"><path d="M328.86,382.2c5,0,9.2-5.23,9.2-11.42s-4.22-11.43-9.2-11.43-9.2,5.24-9.2,11.43S323.87,382.2,328.86,382.2Z" style="opacity: 0.4; transform-origin: 328.86px 370.775px;" class="animable"></path></g><path d="M327.9,381c4.47,0,8.24-4.69,8.24-10.23s-3.77-10.24-8.24-10.24-8.24,4.69-8.24,10.24S323.43,381,327.9,381Z" style="fill: rgb(38, 50, 56); transform-origin: 327.9px 370.765px;" id="ell1m14duq86" class="animable"></path><g id="elrt1m0vo4tyo"><path d="M187.34,396.17c0,2.79-2,5-4.41,5s-4.4-2.25-4.4-5,2-5,4.4-5S187.34,393.39,187.34,396.17Z" style="opacity: 0.4; transform-origin: 182.935px 396.17px;" class="animable"></path></g><path d="M187.34,396.17a3.18,3.18,0,1,1-3.15-3.59A3.4,3.4,0,0,1,187.34,396.17Z" style="fill: rgb(173, 217, 13); transform-origin: 184.176px 395.76px;" id="elqiyc2g2okv" class="animable"></path><g id="elnpbf2xviqwm"><path d="M200.49,396.17c0,2.79-2,5-4.4,5s-4.4-2.25-4.4-5,2-5,4.4-5S200.49,393.39,200.49,396.17Z" style="opacity: 0.4; transform-origin: 196.09px 396.17px;" class="animable"></path></g><path d="M200.49,396.17a3.17,3.17,0,1,1-3.14-3.59A3.39,3.39,0,0,1,200.49,396.17Z" style="fill: rgb(173, 217, 13); transform-origin: 197.337px 395.75px;" id="el9s1qnv2d6fr" class="animable"></path><g id="el1v6zztt3utd"><path d="M213.65,396.17c0,2.79-2,5-4.4,5s-4.4-2.25-4.4-5,2-5,4.4-5S213.65,393.39,213.65,396.17Z" style="opacity: 0.4; transform-origin: 209.25px 396.17px;" class="animable"></path></g><path d="M213.65,396.17a3.17,3.17,0,1,1-3.14-3.59A3.4,3.4,0,0,1,213.65,396.17Z" style="fill: rgb(173, 217, 13); transform-origin: 210.497px 395.75px;" id="eled5sdvana7p" class="animable"></path><g id="eljttt7asnpf"><rect x="141.67" y="391.14" width="9.07" height="10.07" rx="2.3" style="opacity: 0.4; transform-origin: 146.205px 396.175px;" class="animable"></rect></g><rect x="143.69" y="392.15" width="7.05" height="8.05" rx="1.84" style="fill: rgb(173, 217, 13); transform-origin: 147.215px 396.175px;" id="el1qys7xfrc0u" class="animable"></rect><path d="M198.37,226.57h60.29a0,0,0,0,1,0,0V272a8.63,8.63,0,0,1-8.63,8.63H198.37a0,0,0,0,1,0,0V226.57A0,0,0,0,1,198.37,226.57Z" style="fill: rgb(38, 50, 56); transform-origin: 228.515px 253.6px;" id="elxd8vkwpn2mo" class="animable"></path><g id="eljrdkbppeuss"><path d="M198.37,226.57h60.29a0,0,0,0,1,0,0V272a8.63,8.63,0,0,1-8.63,8.63H198.37a0,0,0,0,1,0,0V226.57A0,0,0,0,1,198.37,226.57Z" style="fill: rgb(255, 255, 255); opacity: 0.2; transform-origin: 228.515px 253.6px;" class="animable"></path></g><path d="M221.81,268.8h0a5.39,5.39,0,0,1-5.39-5.4V240.74a5.39,5.39,0,0,1,5.39-5.4h0a5.4,5.4,0,0,1,5.4,5.4V263.4A5.4,5.4,0,0,1,221.81,268.8Z" style="fill: rgb(38, 50, 56); transform-origin: 221.815px 252.07px;" id="el1d1nkn9s9ej" class="animable"></path><path d="M282.7,179.27V224a13.43,13.43,0,0,1-13.43,13.43H235.05c-5.18,0-18.63,4.2-18.63,9.38v18H157.93V190.63a39.27,39.27,0,0,1,39.28-39.28h57.57A27.92,27.92,0,0,1,282.7,179.27Z" style="fill: rgb(173, 217, 13); transform-origin: 220.315px 208.08px;" id="elesywn3h4oom" class="animable"></path><g id="el8noduzd84d7"><path d="M282.7,179.27V224a13.43,13.43,0,0,1-13.43,13.43H235.05c-5.18,0-18.63,4.2-18.63,9.38v18H157.93V190.63a39.27,39.27,0,0,1,39.28-39.28h57.57A27.92,27.92,0,0,1,282.7,179.27Z" style="fill: rgb(255, 255, 255); opacity: 0.2; transform-origin: 220.315px 208.08px;" class="animable"></path></g><path d="M203.88,198.18h-6.47c-6.36,0-11.52,6.08-11.52,13.58s5.16,13.57,11.52,13.57h6.47c6.36,0,11.52-6.08,11.52-13.57S210.24,198.18,203.88,198.18Z" style="fill: rgb(173, 217, 13); transform-origin: 200.645px 211.755px;" id="eln5i2jhklfmb" class="animable"></path><g id="els03hu5lnema"><ellipse cx="197.41" cy="211.76" rx="11.52" ry="13.57" style="fill: rgb(255, 255, 255); opacity: 0.3; transform-origin: 197.41px 211.76px;" class="animable"></ellipse></g><g id="elpr94cwwi7v"><path d="M197.41,223.18c-5,0-9.2-5.23-9.2-11.42s4.21-11.43,9.2-11.43,9.2,5.23,9.2,11.43S202.4,223.18,197.41,223.18Z" style="opacity: 0.4; transform-origin: 197.41px 211.755px;" class="animable"></path></g><path d="M198.37,222c-4.47,0-8.25-4.69-8.25-10.23s3.78-10.24,8.25-10.24,8.24,4.69,8.24,10.24S202.84,222,198.37,222Z" style="fill: rgb(38, 50, 56); transform-origin: 198.365px 211.765px;" id="ela4rpu6hnnga" class="animable"></path><g id="elcudmxfz2367"><path d="M195,210.81c-1.3,0-2.39-1.36-2.39-3s1.09-3,2.39-3,2.39,1.36,2.39,3S196.31,210.81,195,210.81Z" style="fill: rgb(255, 255, 255); opacity: 0.5; transform-origin: 195px 207.81px;" class="animable"></path></g><path d="M167.82,198.18h-6.47c-6.36,0-11.52,6.08-11.52,13.58s5.16,13.57,11.52,13.57h6.47c6.36,0,11.51-6.08,11.51-13.57S174.18,198.18,167.82,198.18Z" style="fill: rgb(173, 217, 13); transform-origin: 164.58px 211.755px;" id="eltnt7urx50ua" class="animable"></path><g id="eli11ax724e9m"><ellipse cx="161.35" cy="211.76" rx="11.52" ry="13.57" style="fill: rgb(255, 255, 255); opacity: 0.3; transform-origin: 161.35px 211.76px;" class="animable"></ellipse></g><g id="el1wh7yysgztb"><path d="M161.35,223.18c-5,0-9.21-5.23-9.21-11.42s4.22-11.43,9.21-11.43,9.2,5.23,9.2,11.43S166.33,223.18,161.35,223.18Z" style="opacity: 0.4; transform-origin: 161.345px 211.755px;" class="animable"></path></g><path d="M162.3,222c-4.47,0-8.24-4.69-8.24-10.23s3.77-10.24,8.24-10.24,8.25,4.69,8.25,10.24S166.77,222,162.3,222Z" style="fill: rgb(38, 50, 56); transform-origin: 162.305px 211.765px;" id="elfikrnytrtd6" class="animable"></path><g id="eln5z1zym7y4"><path d="M159,210.81c-1.29,0-2.39-1.36-2.39-3s1.1-3,2.39-3a3,3,0,0,1,0,5.94Z" style="fill: rgb(255, 255, 255); opacity: 0.5; transform-origin: 159.093px 207.81px;" class="animable"></path></g><polygon points="170.9 251.09 184.25 251.09 184.25 221.99 177.18 221.99 163.84 251.09 170.9 251.09" style="fill: rgb(38, 50, 56); transform-origin: 174.045px 236.54px;" id="elehmuf9f9fit" class="animable"></polygon><g id="eld9sy55j66sq"><polygon points="170.9 251.09 163.84 251.09 177.18 221.99 184.25 221.99 170.9 251.09" style="fill: rgb(255, 255, 255); opacity: 0.2; transform-origin: 174.045px 236.54px;" class="animable"></polygon></g><path d="M258.66,270.54v1.57A29.66,29.66,0,0,1,229,301.76H186.66A29.66,29.66,0,0,1,157,272.11V259.54h58.49v9.38a9.39,9.39,0,0,0,9.38,9.38h26A7.77,7.77,0,0,0,258.66,270.54Z" style="fill: rgb(38, 50, 56); transform-origin: 207.83px 280.65px;" id="elraaafj6sa5q" class="animable"></path><g id="ela7ylmilp7v8"><path d="M258.66,270.54v1.57A29.66,29.66,0,0,1,229,301.76H186.66A29.66,29.66,0,0,1,157,272.11V259.54h58.49v9.38a9.39,9.39,0,0,0,9.38,9.38h26A7.77,7.77,0,0,0,258.66,270.54Z" style="fill: rgb(255, 255, 255); opacity: 0.2; transform-origin: 207.83px 280.65px;" class="animable"></path></g><g id="elonrj3mdiagj"><path d="M168.25,272.27h0a2.78,2.78,0,0,0-2.75,3.09A29.67,29.67,0,0,0,195,301.76h5.54A29.66,29.66,0,0,1,171,274.83,2.78,2.78,0,0,0,168.25,272.27Z" style="opacity: 0.2; transform-origin: 183.011px 287.015px;" class="animable"></path></g><g id="elipw7j0olhxd"><path d="M182.12,272.27h0a2.78,2.78,0,0,0-2.75,3.09,29.67,29.67,0,0,0,29.49,26.4h5.54a29.67,29.67,0,0,1-29.53-26.93A2.78,2.78,0,0,0,182.12,272.27Z" style="opacity: 0.2; transform-origin: 196.876px 287.015px;" class="animable"></path></g><g id="elsozu4ztag8t"><path d="M196,272.27h0a2.78,2.78,0,0,0-2.75,3.09,29.67,29.67,0,0,0,29.49,26.4h5.54a29.67,29.67,0,0,1-29.53-26.93A2.78,2.78,0,0,0,196,272.27Z" style="opacity: 0.2; transform-origin: 210.756px 287.015px;" class="animable"></path></g><path d="M215.88,264.77H157.24a3.44,3.44,0,0,1-3.45-3.45h0a3.45,3.45,0,0,1,3.45-3.46h58.64a3.46,3.46,0,0,1,3.46,3.46h0A3.45,3.45,0,0,1,215.88,264.77Z" style="fill: rgb(38, 50, 56); transform-origin: 186.565px 261.315px;" id="el1rgf0crm7sc" class="animable"></path><g id="elahpr0whbkyf"><path d="M219.34,261.32a3.48,3.48,0,0,1-3.46,3.46H157.24a3.46,3.46,0,0,1-2.44-5.91,3.4,3.4,0,0,1,2.44-1h58.64A3.46,3.46,0,0,1,219.34,261.32Z" style="fill: rgb(255, 255, 255); opacity: 0.4; transform-origin: 186.562px 261.325px;" class="animable"></path></g><g id="el8sft1ioajtd"><path d="M219.34,261.32a3.48,3.48,0,0,1-3.46,3.46h-.38a3.46,3.46,0,1,1,0-6.92h.38A3.46,3.46,0,0,1,219.34,261.32Z" style="opacity: 0.2; transform-origin: 215.69px 261.32px;" class="animable"></path></g><path d="M275,210.6v16.67a4.54,4.54,0,0,1-4.55,4.54H253.8a4.54,4.54,0,0,1-4.54-4.54V210.6a4.54,4.54,0,0,1,4.54-4.53h16.66A4.54,4.54,0,0,1,275,210.6Z" style="fill: rgb(173, 217, 13); transform-origin: 262.13px 218.94px;" id="elox4epblppto" class="animable"></path><g id="elzhwwuqtwibe"><path d="M275,210.6v16.67a4.54,4.54,0,0,1-4.55,4.54H259.35a4.54,4.54,0,0,1-4.54-4.54V210.6a4.53,4.53,0,0,1,4.54-4.53h11.11A4.54,4.54,0,0,1,275,210.6Z" style="opacity: 0.2; transform-origin: 264.905px 218.94px;" class="animable"></path></g><path d="M271.7,213.05H260.09a1.14,1.14,0,0,1-1.15-1.14h0a1.14,1.14,0,0,1,1.15-1.15H271.7a1.14,1.14,0,0,1,1.14,1.15h0A1.14,1.14,0,0,1,271.7,213.05Z" style="fill: rgb(38, 50, 56); transform-origin: 265.89px 211.905px;" id="elfgo9j55ffcp" class="animable"></path><path d="M271.7,217.74H260.09a1.14,1.14,0,0,1-1.15-1.15h0a1.14,1.14,0,0,1,1.15-1.14H271.7a1.14,1.14,0,0,1,1.14,1.14h0A1.14,1.14,0,0,1,271.7,217.74Z" style="fill: rgb(38, 50, 56); transform-origin: 265.89px 216.595px;" id="el3visng3knch" class="animable"></path><path d="M271.7,222.43H260.09a1.15,1.15,0,0,1-1.15-1.15h0a1.14,1.14,0,0,1,1.15-1.14H271.7a1.14,1.14,0,0,1,1.14,1.14h0A1.15,1.15,0,0,1,271.7,222.43Z" style="fill: rgb(38, 50, 56); transform-origin: 265.89px 221.285px;" id="elil5c3okniwf" class="animable"></path><path d="M271.7,227.12H260.09a1.15,1.15,0,0,1-1.15-1.15h0a1.14,1.14,0,0,1,1.15-1.14H271.7a1.14,1.14,0,0,1,1.14,1.14h0A1.15,1.15,0,0,1,271.7,227.12Z" style="fill: rgb(38, 50, 56); transform-origin: 265.89px 225.975px;" id="elr0pyj157gq" class="animable"></path><path d="M286.4,185.49V190a3.7,3.7,0,0,1-3.7,3.7h0V182.92a28.83,28.83,0,0,0-28.83-28.83H231A29.86,29.86,0,0,0,201.14,184h0a7.93,7.93,0,0,1-7.93,7.93h-28a6.4,6.4,0,0,1-6.39-6.4h0a39.28,39.28,0,0,1,39.28-39.27h49A39.29,39.29,0,0,1,286.4,185.49Z" style="fill: rgb(173, 217, 13); transform-origin: 222.61px 169.98px;" id="ele35x5tqlpk4" class="animable"></path><g id="el2fntvo0c52c"><path d="M270.94,184.28c2.49,0,4.6,2.62,4.6,5.71s-2.11,5.72-4.6,5.72-4.6-2.62-4.6-5.72S268.45,184.28,270.94,184.28Z" style="opacity: 0.4; transform-origin: 270.94px 189.995px;" class="animable"></path></g><path d="M270.46,184.88c2.23,0,4.12,2.34,4.12,5.11s-1.89,5.12-4.12,5.12-4.12-2.34-4.12-5.12S268.23,184.88,270.46,184.88Z" style="fill: rgb(38, 50, 56); transform-origin: 270.46px 189.995px;" id="elrjl9dmvulti" class="animable"></path><g id="eln3q4g6xnwh"><path d="M258.07,184.28c2.49,0,4.6,2.62,4.6,5.71s-2.11,5.72-4.6,5.72-4.6-2.62-4.6-5.72S255.57,184.28,258.07,184.28Z" style="opacity: 0.4; transform-origin: 258.07px 189.995px;" class="animable"></path></g><path d="M257.59,184.88c2.23,0,4.12,2.34,4.12,5.11s-1.89,5.12-4.12,5.12-4.12-2.34-4.12-5.12S255.35,184.88,257.59,184.88Z" style="fill: rgb(38, 50, 56); transform-origin: 257.59px 189.995px;" id="elgavsh9ncwqt" class="animable"></path><g id="eltpapmjk8l4"><path d="M245.19,184.28c2.5,0,4.6,2.62,4.6,5.71s-2.1,5.72-4.6,5.72-4.6-2.62-4.6-5.72S242.7,184.28,245.19,184.28Z" style="opacity: 0.4; transform-origin: 245.19px 189.995px;" class="animable"></path></g><path d="M244.71,184.88c2.24,0,4.13,2.34,4.13,5.11s-1.89,5.12-4.13,5.12-4.12-2.34-4.12-5.12S242.48,184.88,244.71,184.88Z" style="fill: rgb(38, 50, 56); transform-origin: 244.715px 189.995px;" id="elx63chxpwu" class="animable"></path><g id="el3winmkj1rwy"><path d="M264.5,169.49c2.5,0,4.6,2.61,4.6,5.71s-2.1,5.71-4.6,5.71-4.6-2.62-4.6-5.71S262,169.49,264.5,169.49Z" style="opacity: 0.4; transform-origin: 264.5px 175.2px;" class="animable"></path></g><path d="M264,170.08c2.24,0,4.13,2.35,4.13,5.12s-1.89,5.12-4.13,5.12-4.12-2.35-4.12-5.12S261.79,170.08,264,170.08Z" style="fill: rgb(38, 50, 56); transform-origin: 264.005px 175.2px;" id="elvrvlnhvxvu" class="animable"></path><g id="elyp4j3bwzax8"><path d="M251.63,169.49c2.49,0,4.6,2.61,4.6,5.71s-2.11,5.71-4.6,5.71-4.6-2.62-4.6-5.71S249.14,169.49,251.63,169.49Z" style="opacity: 0.4; transform-origin: 251.63px 175.2px;" class="animable"></path></g><path d="M251.15,170.08c2.23,0,4.12,2.35,4.12,5.12s-1.89,5.12-4.12,5.12S247,178,247,175.2,248.92,170.08,251.15,170.08Z" style="fill: rgb(38, 50, 56); transform-origin: 251.135px 175.2px;" id="eluott4a84far" class="animable"></path></g><defs>     <filter id="active" height="200%">         <feMorphology in="SourceAlpha" result="DILATED" operator="dilate" radius="2"></feMorphology>                <feFlood flood-color="#32DFEC" flood-opacity="1" result="PINK"></feFlood>        <feComposite in="PINK" in2="DILATED" operator="in" result="OUTLINE"></feComposite>        <feMerge>            <feMergeNode in="OUTLINE"></feMergeNode>            <feMergeNode in="SourceGraphic"></feMergeNode>        </feMerge>    </filter>    <filter id="hover" height="200%">        <feMorphology in="SourceAlpha" result="DILATED" operator="dilate" radius="2"></feMorphology>                <feFlood flood-color="#ff0000" flood-opacity="0.5" result="PINK"></feFlood>        <feComposite in="PINK" in2="DILATED" operator="in" result="OUTLINE"></feComposite>        <feMerge>            <feMergeNode in="OUTLINE"></feMergeNode>            <feMergeNode in="SourceGraphic"></feMergeNode>        </feMerge>            <feColorMatrix type="matrix" values="0   0   0   0   0                0   1   0   0   0                0   0   0   0   0                0   0   0   1   0 "></feColorMatrix>    </filter></defs></svg>